<svg width="34" height="33" viewBox="0 0 34 33" fill="none" xmlns="http://www.w3.org/2000/svg">
<g id="Icon/Google">
<path id="Vector" d="M31.96 16.8575C31.96 15.785 31.8592 14.7492 31.6942 13.75H17V19.69H25.6167C25.2683 21.6975 24.1592 23.4025 22.4817 24.5575V28.3158H27.3217C30.255 25.5933 31.96 21.5967 31.96 16.8575Z" fill="#4285F4"/>
<path id="Vector_2" d="M17.0009 32.0834C21.2084 32.0834 24.7376 30.6901 27.3134 28.3067L22.4734 24.5484C21.0343 25.5384 19.1826 26.1159 17.0009 26.1159C12.8668 26.1159 9.36511 23.3476 8.08177 19.5984H3.08594V23.4759C5.6526 28.5817 10.9143 32.0834 17.0009 32.0834Z" fill="#34A853"/>
<path id="Vector_3" d="M8.08018 19.6074C7.75018 18.6266 7.55768 17.5816 7.55768 16.4999C7.55768 15.4182 7.75018 14.3732 8.08935 13.3924V9.51489H3.08435C2.03018 11.6141 1.41602 13.9791 1.41602 16.4999C1.41602 19.0207 2.03018 21.3857 3.08435 23.4941L8.08018 19.6074Z" fill="#FBBC05"/>
<path id="Vector_4" d="M17.0009 6.87508C19.3476 6.87508 21.4559 7.68175 23.1151 9.26758L23.1243 9.28592L27.4326 4.97758C24.7284 2.45675 21.2084 0.916748 17.0009 0.916748C10.9143 0.916748 5.6526 4.41841 3.08594 9.50591L8.08177 13.3834C9.36511 9.64342 12.8668 6.87508 17.0009 6.87508Z" fill="#EA4335"/>
</g>
</svg>
