<svg width="227" height="304" viewBox="0 0 227 304" fill="none" xmlns="http://www.w3.org/2000/svg">
<g id="Group 6" filter="url(#filter0_d_1876_11479)">
<g id="Group 5">
<path id="Line 8 (Stroke)" fill-rule="evenodd" clip-rule="evenodd" d="M111.284 239.621V164.026H114.732V239.621H111.284Z" fill="#D40000"/>
<path id="Line 9 (Stroke)" fill-rule="evenodd" clip-rule="evenodd" d="M109.805 273V242.075H116.209V273H109.805Z" fill="#FF0000"/>
<path id="Ellipse 3" d="M117.194 241.83C117.194 244.134 115.32 246.002 113.007 246.002C110.695 246.002 108.82 244.134 108.82 241.83C108.82 239.525 110.695 237.657 113.007 237.657C115.32 237.657 117.194 239.525 117.194 241.83Z" fill="#FFC56E"/>
</g>
<path id="Subtract" fill-rule="evenodd" clip-rule="evenodd" d="M96.9977 223.913H99.9532L99.9532 183.661H96.9977L96.9977 223.913ZM94.0422 183.661H90.1016V223.913H94.0422L94.0422 183.661ZM102.909 183.661L102.909 223.913H105.864L105.864 183.661H102.909ZM108.82 183.661L108.82 223.913H111.775L111.775 183.661H108.82ZM114.731 183.661L114.731 223.913H117.686L117.686 183.661H114.731ZM120.642 183.661L120.642 223.913H123.597L123.597 183.661H120.642ZM126.553 183.661L126.553 223.913H129.508L129.508 183.661H126.553ZM132.464 183.661L132.464 223.913H136.404V183.661H132.464Z" fill="#F8EE00"/>
<path id="Rectangle 5" d="M83.207 39.3448C83.207 34.7361 86.9561 31 91.5809 31H134.928C139.553 31 143.302 34.7361 143.302 39.3448V181.698C143.302 186.307 139.553 190.043 134.928 190.043H91.5809C86.9561 190.043 83.207 186.307 83.207 181.698V39.3448Z" fill="#763030"/>
<path id="Ellipse 2" d="M196.007 110.521C196.007 149.289 158.957 180.716 113.254 180.716C67.5501 180.716 30.5 149.289 30.5 110.521C30.5 71.7539 67.5501 40.3267 113.254 40.3267C158.957 40.3267 196.007 71.7539 196.007 110.521Z" fill="url(#paint0_radial_1876_11479)"/>
<mask id="mask0_1876_11479" style="mask-type:alpha" maskUnits="userSpaceOnUse" x="30" y="40" width="167" height="141">
<path id="Ellipse 3_2" d="M196.5 110.521C196.5 149.289 159.45 180.716 113.746 180.716C68.0423 180.716 30.9922 149.289 30.9922 110.521C30.9922 71.7539 68.0423 40.3267 113.746 40.3267C159.45 40.3267 196.5 71.7539 196.5 110.521Z" fill="url(#paint1_linear_1876_11479)"/>
</mask>
<g mask="url(#mask0_1876_11479)">
<g id="Union" style="mix-blend-mode:multiply">
<path fill-rule="evenodd" clip-rule="evenodd" d="M140.617 31.9817C143.724 48.9079 146.065 64.0396 147.63 78.3403C160.528 77.0428 174.165 74.9671 189.596 72.1244L189.685 72.6071C174.243 75.4519 160.594 77.5293 147.683 78.8283C148.474 86.121 149.062 93.1998 149.446 100.193C165.84 98.9156 183.15 96.754 202.903 93.7215L202.978 94.2067C183.208 97.2417 165.883 99.405 149.472 100.683C149.877 108.239 150.044 115.698 149.971 123.223C166.21 121.94 183.361 119.793 202.903 116.793L202.978 117.278C183.406 120.282 166.23 122.433 149.966 123.716C149.895 130.194 149.645 136.724 149.217 143.408C165.679 142.132 183.058 139.965 202.903 136.918L202.978 137.403C183.093 140.456 165.681 142.627 149.185 143.902C148.738 150.75 148.104 157.763 147.282 165.051C161.157 163.787 175.797 161.605 192.551 158.518L192.641 159.001C175.831 162.097 161.145 164.285 147.226 165.549C145.678 179.144 143.478 193.701 140.618 209.937L139.162 209.683C141.997 193.593 144.182 179.16 145.724 165.682C124.19 167.541 104.385 167.172 81.2188 164.521C82.767 178.331 84.9952 193.131 87.9115 209.683L86.456 209.937C83.511 193.222 81.2658 178.285 79.7126 164.346C68.8321 163.063 57.1958 161.283 44.2861 159.001L44.3722 158.518C57.2282 160.791 68.8191 162.565 79.657 163.846C78.8925 156.923 78.2992 150.244 77.8761 143.715C61.748 142.425 44.4181 140.325 24.5898 137.404L24.6619 136.918C44.4508 139.834 61.7478 141.931 77.8444 143.22C77.4197 136.536 77.1737 130.007 77.1055 123.527C61.196 122.232 44.1027 120.153 24.5898 117.278L24.6619 116.792C44.1464 119.663 61.2151 121.74 77.1006 123.034C77.0318 115.511 77.2027 108.053 77.6115 100.497C61.5585 99.2054 44.3097 97.1124 24.5898 94.2069L24.6619 93.7213C44.3664 96.6246 61.6003 98.716 77.6383 100.007C78.0327 92.8931 78.6377 85.6899 79.4519 78.2622C67.8002 76.9621 55.3121 75.0794 41.3306 72.6074L41.4167 72.1241C55.3881 74.5943 67.8652 76.4755 79.5056 77.7743C81.0704 63.6404 83.3906 48.6848 86.4569 31.9817L87.9105 32.2467C84.8503 48.9168 82.535 63.8371 80.9742 77.9356C104.189 80.4429 124.147 80.6077 146.16 78.4852C144.599 64.2249 142.263 49.1336 139.163 32.2467L140.617 31.9817ZM80.9205 78.4234C80.1079 85.8364 79.5046 93.0246 79.1118 100.123C103.24 101.999 124.726 102.048 147.972 100.306C147.589 93.3233 147.002 86.2555 146.213 78.9732C124.163 81.0996 104.171 80.9347 80.9205 78.4234ZM79.085 100.613C78.677 108.17 78.5079 115.628 78.5795 123.153C103.104 125.084 124.876 125.132 148.492 123.337C148.568 115.811 148.403 108.352 147.999 100.796C124.735 102.539 103.23 102.49 79.085 100.613ZM78.5846 123.645C78.6552 130.123 78.9042 136.652 79.3324 143.337C103.287 145.19 124.648 145.239 147.729 143.521C148.161 136.835 148.413 130.307 148.487 123.83C124.875 125.622 103.103 125.574 78.5846 123.645ZM79.3645 143.832C79.792 150.378 80.3912 157.075 81.1629 164.021C104.379 166.683 124.207 167.053 145.78 165.184C146.608 157.887 147.246 150.868 147.697 144.015C124.639 145.728 103.292 145.68 79.3645 143.832Z" fill="#860000" fill-opacity="0.5"/>
</g>
</g>
</g>
<defs>
<filter id="filter0_d_1876_11479" x="0.4" y="0.9" width="226.2" height="302.2" filterUnits="userSpaceOnUse" color-interpolation-filters="sRGB">
<feFlood flood-opacity="0" result="BackgroundImageFix"/>
<feColorMatrix in="SourceAlpha" type="matrix" values="0 0 0 0 0 0 0 0 0 0 0 0 0 0 0 0 0 0 127 0" result="hardAlpha"/>
<feOffset/>
<feGaussianBlur stdDeviation="15.05"/>
<feComposite in2="hardAlpha" operator="out"/>
<feColorMatrix type="matrix" values="0 0 0 0 1 0 0 0 0 0.961296 0 0 0 0 0.746666 0 0 0 1 0"/>
<feBlend mode="normal" in2="BackgroundImageFix" result="effect1_dropShadow_1876_11479"/>
<feBlend mode="normal" in="SourceGraphic" in2="effect1_dropShadow_1876_11479" result="shape"/>
</filter>
<radialGradient id="paint0_radial_1876_11479" cx="0" cy="0" r="1" gradientUnits="userSpaceOnUse" gradientTransform="translate(113.254 140.71) rotate(-90) scale(64.5497 108.165)">
<stop stop-color="#F8FF76"/>
<stop offset="1" stop-color="#FF0000"/>
</radialGradient>
<linearGradient id="paint1_linear_1876_11479" x1="113.746" y1="180.716" x2="113.746" y2="83.278" gradientUnits="userSpaceOnUse">
<stop stop-color="#F2F6A6"/>
<stop offset="1" stop-color="#FF0000"/>
</linearGradient>
</defs>
</svg>
