<svg width="289" height="110" viewBox="0 0 289 110" fill="none" xmlns="http://www.w3.org/2000/svg">
<g clip-path="url(#clip0_2221_51958)">
<path fill-rule="evenodd" clip-rule="evenodd" d="M13.6611 27.2543V21.3203C19.4667 24.2582 29.0587 26.1776 39.9088 26.1776C50.7581 26.1776 60.3494 24.2585 66.1551 21.321V27.2544C70.9931 26.5553 75.1992 25.6682 78.5491 24.6416V34.1992H76.0149V36.1151H77.2817V36.8662C78.7698 37.3042 79.8157 38.3408 79.8157 39.5497C79.8157 40.7588 78.7698 41.7954 77.2817 42.2333V42.9844H74.1143V42.2332C72.6264 41.7952 71.5807 40.7587 71.5807 39.5497C71.5807 38.3409 72.6264 37.3043 74.1143 36.8663V36.1151H75.05V34.1992H70.3146V39.2858H66.513V57.987H60.1784V39.2858H19.2982V93.6887H12.5439V39.2858H8.86857V34.1992H4.43428V36.1151H5.70105V36.8664C7.1891 37.3044 8.23504 38.341 8.23504 39.5499C8.23504 40.759 7.1891 41.7956 5.70105 42.2334V42.9844H2.53372V42.2334C1.04582 41.7954 0 40.7589 0 39.5499C0 38.341 1.04582 37.3045 2.53372 36.8665V36.1151H3.46937V34.1992H1.26635V24.6413C4.61633 25.6679 8.82264 26.5551 13.6611 27.2543ZM2.53372 43.5126H3.16719V47.2114H2.53372V43.5126ZM5.70092 43.5126H5.06746V47.2114H5.70092V43.5126ZM3.80111 43.5126H4.43457V47.2114H3.80111V43.5126ZM74.7478 43.5126H74.1143V47.2114H74.7478V43.5126ZM76.6481 43.5126H77.2816V47.2114H76.6481V43.5126ZM76.0152 43.5126H75.3817V47.2114H76.0152V43.5126Z" fill="#E1D1B2"/>
<path fill-rule="evenodd" clip-rule="evenodd" d="M259.33 56.359C262.372 52.9273 263.421 48.0408 263.421 41.5837C263.421 30.0481 253.325 20.3557 240.436 20.3557C227.791 20.3557 219.035 29.8103 219.035 41.5837C219.035 52.7266 221.279 57.5249 224.309 59.8532C225.877 61.0586 227.924 61.8242 230.645 62.2693C233.373 62.7154 236.578 62.8108 240.372 62.8118C250.803 62.3375 256.322 59.7527 259.33 56.359ZM240.436 65.7066C262.091 64.7416 266.316 54.9064 266.316 41.5837C266.316 28.2611 254.729 17.4609 240.436 17.4609C226.143 17.4609 216.141 28.2611 216.141 41.5837C216.141 64.2592 225.119 65.7066 240.436 65.7066Z" fill="#E1D1B2"/>
<path fill-rule="evenodd" clip-rule="evenodd" d="M264.001 50.2077C263.497 51.0895 262.958 51.9341 262.386 52.7379C263.446 53.6657 264.716 54.2456 266.124 54.3589C270.677 54.725 274.954 50.0722 275.675 43.9664C276.396 37.8606 273.29 32.6141 268.737 32.248C268.603 32.2371 268.468 32.2307 268.333 32.2285C268.368 33.1774 268.363 34.1414 268.315 35.1172C268.343 35.1186 268.37 35.1205 268.397 35.1227C269.55 35.2154 270.751 35.9381 271.665 37.483C272.58 39.0278 273.085 41.237 272.789 43.7343C272.494 46.2316 271.482 48.3189 270.223 49.6889C268.964 51.059 267.617 51.5768 266.463 51.4841C265.625 51.4167 264.761 51.0158 264.001 50.2077Z" fill="#E1D1B2"/>
<path fill-rule="evenodd" clip-rule="evenodd" d="M231.257 55.2588C232.905 58.357 237.369 60.1675 242.038 59.4118C246.708 58.6561 250.036 55.5849 250.176 52.1973L249.004 52.3868C248.749 55.2458 245.844 57.8126 241.818 58.4643C237.79 59.116 233.946 57.6413 232.427 55.0694L231.257 55.2588Z" fill="white"/>
<path fill-rule="evenodd" clip-rule="evenodd" d="M248.52 54.2517L246.492 57.3308C245.909 57.5124 245.295 57.6557 244.657 57.7555C244.301 57.3253 243.987 56.8276 243.74 56.2792C242.757 54.0997 243.196 51.945 244.721 51.4668C246.093 51.0361 247.878 52.112 248.937 53.9223L248.683 54.3265L248.52 54.2517Z" fill="white"/>
<path fill-rule="evenodd" clip-rule="evenodd" d="M215.995 6.57783C216.421 4.4446 218.22 2.85963 220.39 2.7079L258.946 0.0118434C261.115 -0.139889 263.119 1.17913 263.836 3.23245L269.927 20.6536C270.26 21.604 270.881 22.4267 271.704 23.0063L287.67 34.2455C288.089 34.541 288.051 35.7001 287.621 35.7302L207.992 41.2983C210.806 36.6252 211.496 32.2054 209.343 30.0063C209.129 29.787 208.891 29.5956 208.634 29.4312L210.956 27.2542C211.691 26.5657 212.192 25.6644 212.388 24.677L215.995 6.57783Z" fill="#E1D1B2"/>
<path fill-rule="evenodd" clip-rule="evenodd" d="M192.512 30.4701C192.46 30.4897 192.408 30.5094 192.356 30.5292C192.302 30.5487 192.248 30.5685 192.195 30.5885C187.47 32.3473 184.062 35.5978 183.238 38.733C182.415 40.7562 182.282 42.8693 183.008 44.8192C184.961 50.0631 192.381 52.1409 199.582 49.46C206.783 46.7791 211.039 40.3548 209.087 35.1109C208.235 32.8231 206.342 31.138 203.881 30.1877C203.95 30.2145 204.02 30.2419 204.088 30.2699C204.179 30.156 204.279 30.0529 204.386 29.9618C205.477 29.0307 207.707 29.0559 209.327 30.9442C210.947 32.8326 210.627 35.0322 209.534 35.9632C209.484 36.0063 209.431 36.0473 209.376 36.0861C209.537 36.8054 209.591 37.5405 209.545 38.2795C210.015 38.099 210.458 37.8407 210.854 37.502C213.018 35.6581 213.026 32.131 210.876 29.624C208.725 27.1168 205.228 26.5792 203.065 28.423C202.653 28.7745 202.319 29.1872 202.063 29.6423C199.206 29.0092 195.836 29.233 192.512 30.4701ZM206.069 42.1336C207.527 39.9317 207.874 37.6911 207.178 35.8213C207.013 35.3791 206.791 34.9592 206.514 34.5665C206.786 38.1852 203.021 42.4138 197.378 44.5145C192.383 46.3743 187.41 46.0098 184.837 43.8782C184.862 43.9557 184.888 44.0326 184.917 44.1088C185.612 45.9786 187.339 47.4472 189.883 48.1594C192.425 48.8711 195.637 48.7667 198.875 47.561C202.113 46.3554 204.612 44.3339 206.069 42.1336ZM204.964 33.7629C204.802 33.3289 204.541 32.9219 204.182 32.5556C203.594 32.238 202.936 31.9737 202.212 31.7708C200.891 31.4008 199.388 31.2514 197.795 31.3625C199.369 32.3533 200.667 33.8924 201.388 35.8289C201.963 37.3724 202.095 38.9643 201.85 40.4479C202.552 39.8667 203.156 39.253 203.649 38.6279C205.091 36.8013 205.453 35.0777 204.964 33.7629ZM194.902 31.8389C197.157 32.2868 199.156 33.9597 200.039 36.3311C200.735 38.2023 200.622 40.1992 199.849 41.8493C198.957 42.378 197.972 42.8522 196.908 43.2484C196.047 43.5688 195.192 43.8168 194.357 43.9966C195.051 42.341 195.15 40.4707 194.492 38.7071C193.658 36.4646 191.787 34.8897 189.56 34.2679C190.635 33.523 191.862 32.8744 193.22 32.3691C193.782 32.1596 194.344 31.9835 194.902 31.8389ZM186.025 37.7966C186.572 36.9705 187.266 36.1697 188.091 35.4278C190.371 35.6721 192.354 37.0883 193.143 39.2092C193.774 40.9001 193.536 42.7486 192.62 44.2779C191.228 44.4275 189.925 44.3809 188.785 44.1617C186.515 43.7252 185.118 42.6695 184.62 41.3669C184.765 40.2096 185.23 38.9973 186.025 37.7966Z" fill="white"/>
<path fill-rule="evenodd" clip-rule="evenodd" d="M12.5635 94.6533C36.2183 100.003 64.239 104.255 94.7253 106.76C187.542 114.392 268.065 102.96 274.579 81.2265C276.119 76.0916 273.388 70.8412 267.097 65.7158L256.602 68.3557C259.519 71.7766 260.599 75.2378 259.577 78.6458C257.558 85.3823 247.6 90.9979 232.08 95.1374C206.714 103.954 148.26 106.891 82.4478 101.479C56.9151 99.3807 33.1716 96.2632 12.5635 92.5058V94.6533Z" fill="#E1D1B2"/>
<path d="M233.036 94.8951C233.036 95.6349 232.73 96.2943 232.119 96.8735C231.508 97.4524 230.833 97.7419 230.093 97.7419C229.675 97.7419 229.112 97.6454 228.404 97.4524C227.697 97.2595 227.005 97.0182 226.33 96.7288C225.654 96.4711 225.124 96.2299 224.738 96.0048C222.132 94.4288 219.833 92.5311 217.838 90.3118C215.844 88.0925 214.124 85.6641 212.676 83.0267C211.229 80.3893 210.006 77.6553 209.01 74.825C208.302 77.5911 207.369 80.132 206.211 82.4478C205.053 84.7314 203.493 86.9346 201.531 89.0574C198.476 92.3702 194.809 94.8308 190.531 96.439C190.114 96.5995 189.615 96.7442 189.036 96.8735C188.489 97.0337 188.103 97.1147 187.878 97.1147C187.75 97.1147 187.589 97.0819 187.396 97.0182C187.234 96.9854 187.154 96.8889 187.154 96.7288C187.154 96.439 187.283 96.2139 187.54 96.053C187.798 95.8922 188.023 95.7474 188.216 95.6188C191.465 93.4639 194.134 90.8425 196.224 87.7548C198.315 84.6349 200.004 81.2738 201.29 77.6714C201.773 76.3206 202.191 74.7285 202.545 72.8951C202.931 71.0297 203.252 69.0998 203.51 67.1057C203.799 65.0793 204.008 63.1174 204.137 61.2197C204.265 59.322 204.33 57.6495 204.33 56.2021L212.049 56.7328C211.921 57.9551 211.711 59.4025 211.422 61.075C211.164 62.7474 210.859 64.436 210.505 66.1407L213.496 64.9829C213.851 67.363 214.413 69.92 215.185 72.6539C215.957 75.3557 216.922 78.0574 218.08 80.7592C219.269 83.4609 220.62 85.9858 222.132 88.3337C223.644 90.6816 225.317 92.6758 227.15 94.3162C227.471 93.8016 227.874 93.3191 228.356 92.8688C228.839 92.4185 229.401 92.1934 230.045 92.1934C230.72 92.1934 231.379 92.4667 232.023 93.0136C232.698 93.5604 233.036 94.1876 233.036 94.8951Z" fill="white"/>
<path d="M171.04 75.114C171.04 75.5643 170.799 75.7895 170.316 75.7895C170.123 75.7895 169.673 75.6769 168.966 75.4517C168.29 75.1944 167.598 74.9371 166.891 74.6798C166.184 74.4225 165.701 74.2456 165.444 74.1491C164.414 74.5351 163.192 74.921 161.777 75.307C160.361 75.693 159.107 75.8859 158.014 75.8859C157.724 75.8859 157.58 75.7412 157.58 75.4517C157.58 75.2266 157.676 75.0658 157.869 74.9693C158.062 74.8728 158.271 74.7924 158.496 74.7281C158.721 74.6316 158.947 74.5351 159.172 74.4386C159.654 74.1812 160.12 73.924 160.571 73.6667C161.053 73.4093 161.519 73.1521 161.97 72.8947C161.326 72.6374 160.667 72.4123 159.992 72.2193C159.348 71.9942 158.689 71.7851 158.014 71.5921L160.137 69.0833C160.909 69.3084 161.664 69.5819 162.404 69.9035C163.176 70.193 163.916 70.5146 164.623 70.8684C164.978 70.5789 165.331 70.2733 165.685 69.9517C166.039 69.6301 166.36 69.2924 166.65 68.9386L170.606 70.3859C170.799 70.4503 170.895 70.5628 170.895 70.7237C170.895 70.8523 170.686 71.0775 170.268 71.3991C169.85 71.6886 169.4 71.978 168.917 72.2675C168.467 72.5249 168.162 72.7017 168.001 72.7982C168.225 72.8947 168.58 73.0877 169.062 73.3772C169.544 73.6345 169.995 73.924 170.413 74.2456C170.831 74.5351 171.04 74.8245 171.04 75.114ZM172.102 68.7456H157.242V76.3684H169.93C171.378 76.3684 172.102 75.5965 172.102 74.0526V68.7456ZM151.983 57.9386C151.983 58.2281 151.758 58.7426 151.308 59.4824C150.857 60.19 150.311 60.9781 149.667 61.8465C149.024 62.6828 148.413 63.4547 147.834 64.1623C147.255 64.8698 146.837 65.3684 146.58 65.6579C147.802 68.231 148.671 71.0453 149.185 74.1009C149.732 77.1564 150.005 80.0994 150.005 82.9298C150.005 83.9268 149.957 85.117 149.86 86.5C149.764 87.8509 149.571 89.25 149.281 90.6973C148.992 92.1126 148.558 93.4312 147.979 94.6535C147.432 95.9079 146.692 96.9213 145.759 97.6933C144.859 98.4652 143.717 98.8511 142.334 98.8511C141.883 98.8511 141.369 98.6582 140.79 98.2722C140.211 97.9181 139.632 97.4675 139.053 96.9213C138.506 96.3742 138.008 95.8275 137.558 95.2807C137.107 94.7339 136.769 94.2836 136.544 93.9298C136.48 93.8012 136.448 93.6886 136.448 93.5921C136.448 93.4312 136.513 93.3509 136.641 93.3509C136.706 93.3509 136.802 93.383 136.93 93.4474C137.702 93.8654 138.394 94.2032 139.005 94.4605C139.616 94.6856 140.372 94.7982 141.273 94.7982C141.883 94.7982 142.366 94.5891 142.72 94.171C143.074 93.7207 143.331 93.2383 143.492 92.7237C143.813 91.8231 144.054 90.6652 144.216 89.25C144.377 87.8347 144.489 86.4035 144.553 84.9561C144.65 83.4766 144.698 82.2544 144.698 81.2895C143.605 82.8977 142.414 84.3289 141.128 85.5833C139.873 86.8056 138.346 87.8347 136.544 88.671C136.383 88.7354 136.078 88.864 135.628 89.057C135.21 89.2178 134.921 89.2982 134.759 89.2982C134.47 89.2982 134.325 89.1856 134.325 88.9605C134.325 88.8319 134.342 88.7514 134.373 88.7193C134.438 88.6549 134.502 88.5907 134.566 88.5263C134.952 88.1082 135.322 87.674 135.676 87.2237C136.062 86.7733 136.416 86.3231 136.737 85.8728C137.734 84.554 138.716 82.9942 139.68 81.193C140.645 79.3918 141.514 77.5424 142.286 75.6447C143.089 73.747 143.701 72.0102 144.119 70.4342C144.054 70.1768 143.991 69.9196 143.926 69.6623C143.861 69.3728 143.765 69.0994 143.637 68.8421C143.089 69.421 142.35 70.0804 141.417 70.8202C140.517 71.5277 139.552 72.1549 138.523 72.7017C137.526 73.2486 136.609 73.5219 135.773 73.5219C135.548 73.5219 135.435 73.4254 135.435 73.2324C135.435 73.0716 135.499 72.9269 135.628 72.7982C136.818 71.576 137.96 70.3377 139.053 69.0833C140.147 67.7968 141.096 66.3977 141.9 64.8859C141.546 64.2426 141.111 63.5994 140.597 62.9561C140.083 62.3128 139.407 61.9912 138.571 61.9912C138.057 61.9912 137.558 62.1038 137.075 62.3289C136.593 62.554 136.175 62.7793 135.821 63.0044C135.499 63.2295 135.274 63.3421 135.145 63.3421C134.921 63.3421 134.808 63.2456 134.808 63.0526C134.808 62.8918 134.856 62.747 134.952 62.6184C135.467 61.7821 136.207 61.0424 137.172 60.3991C138.137 59.7558 139.118 59.4342 140.115 59.4342C140.822 59.4342 141.53 59.6433 142.237 60.0614C142.945 60.4474 143.508 60.8977 143.926 61.4123C144.409 60.4152 144.843 59.4021 145.229 58.3728C145.646 57.3435 146.001 56.2982 146.29 55.2368L151.501 57.4079C151.822 57.5365 151.983 57.7135 151.983 57.9386ZM161.68 90.4079C161.68 90.5365 161.6 90.6812 161.439 90.8421C161.311 90.9707 161.166 91.0351 161.005 91.0351C160.94 91.0351 160.635 90.9064 160.088 90.6491C159.541 90.3596 158.979 90.0702 158.4 89.7807C157.853 89.4591 157.483 89.2661 157.29 89.2017V93.8333C157.515 93.769 157.934 93.6242 158.544 93.3991C159.155 93.1418 159.734 92.9005 160.281 92.6754C160.86 92.4503 161.166 92.3377 161.198 92.3377C161.456 92.3377 161.584 92.4824 161.584 92.7719C161.584 92.8363 161.568 92.9005 161.536 92.9649C161.536 93.0293 161.519 93.0935 161.487 93.1579C161.23 93.6725 160.844 94.2193 160.33 94.7982C159.847 95.3772 159.381 95.8435 158.93 96.1973C157.837 97.0333 156.759 97.6286 155.698 97.9827C154.637 98.3687 153.43 98.5617 152.08 98.5617V79.8903H157.29V81.6272C157.483 81.4986 157.756 81.3216 158.11 81.0965C158.496 80.8391 158.786 80.7105 158.979 80.7105C159.14 80.7105 159.252 80.7426 159.316 80.807C159.381 80.8391 159.461 80.9196 159.558 81.0482C159.719 81.2091 159.944 81.5789 160.233 82.1579C160.554 82.7368 160.844 83.3158 161.102 83.8947C161.391 84.4737 161.536 84.8757 161.536 85.1009C161.536 85.2295 161.456 85.3582 161.294 85.4868C161.166 85.6154 161.021 85.6798 160.86 85.6798C160.828 85.6798 160.539 85.5672 159.992 85.3421C159.478 85.0847 158.93 84.8275 158.352 84.5702C157.804 84.2807 157.451 84.1038 157.29 84.0395V87.1272C157.451 87.0307 157.756 86.8377 158.207 86.5482C158.657 86.2266 158.962 86.0658 159.123 86.0658C159.285 86.0658 159.396 86.0979 159.461 86.1623C159.526 86.1944 159.606 86.2749 159.702 86.4035C159.864 86.5965 160.088 86.9824 160.378 87.5614C160.699 88.1082 160.989 88.671 161.246 89.25C161.536 89.7968 161.68 90.1828 161.68 90.4079ZM182.185 96.9696C182.185 97.7087 181.912 98.304 181.365 98.7547C180.85 99.2043 180.239 99.4301 179.531 99.4301C179.017 99.4301 178.47 99.269 177.891 98.9476C177.344 98.6254 176.813 98.224 176.299 97.7415C175.816 97.2909 175.43 96.8731 175.141 96.4868C173.983 94.9108 173.083 93.1096 172.439 91.0833C171.796 89.0249 171.33 87.0468 171.04 85.1491C170.879 85.31 170.702 85.3903 170.509 85.3903C170.445 85.3903 170.155 85.2777 169.641 85.0526C169.127 84.7953 168.596 84.538 168.049 84.2807C167.535 83.9912 167.18 83.8143 166.987 83.75V86.8377C167.149 86.7412 167.454 86.5482 167.904 86.2588C168.355 85.9371 168.644 85.7763 168.773 85.7763C168.934 85.7763 169.046 85.8084 169.11 85.8728C169.175 85.9049 169.271 85.9854 169.4 86.114C169.561 86.2749 169.786 86.6447 170.075 87.2237C170.396 87.8026 170.686 88.3816 170.944 88.9605C171.233 89.5395 171.378 89.9415 171.378 90.1666C171.378 90.2953 171.298 90.424 171.137 90.5526C171.008 90.6812 170.864 90.7456 170.702 90.7456C170.606 90.7456 170.285 90.617 169.737 90.3596C169.223 90.0702 168.676 89.7807 168.097 89.4912C167.55 89.1696 167.18 88.9766 166.987 88.9123V93.5921C167.824 93.3026 168.628 93.0131 169.4 92.7237C170.204 92.4021 171.008 92.0643 171.812 91.7105C171.844 91.6784 171.909 91.6623 172.005 91.6623C172.166 91.6623 172.278 91.7266 172.343 91.8552C172.407 91.9517 172.439 92.0643 172.439 92.193C172.439 92.2895 172.407 92.4342 172.343 92.6272C172.118 93.1096 171.732 93.6242 171.185 94.171C170.671 94.6856 170.204 95.1038 169.786 95.4254C168.499 96.4225 167.229 97.0815 165.974 97.4038C164.752 97.7569 163.353 97.9982 161.777 98.1275V79.8421H166.987V81.3859C167.149 81.2895 167.422 81.1126 167.808 80.8552C168.194 80.5658 168.467 80.421 168.628 80.421C168.853 80.421 169.062 80.5336 169.255 80.7588C169.383 80.8874 169.544 81.1608 169.737 81.5789C169.962 81.9649 170.188 82.367 170.413 82.7851C170.638 83.2032 170.782 83.5087 170.847 83.7017C170.751 82.9942 170.686 82.3026 170.654 81.6272C170.622 80.9517 170.589 80.2602 170.558 79.5526H176.54C176.508 80.1637 176.475 80.7749 176.444 81.3859C176.444 81.9649 176.444 82.56 176.444 83.171C176.444 85.133 176.557 87.2237 176.781 89.443C177.039 91.6623 177.553 93.6886 178.325 95.5219C178.872 95.1038 179.467 94.8947 180.11 94.8947C180.657 94.8947 181.14 95.1038 181.558 95.5219C181.975 95.94 182.185 96.4225 182.185 96.9696ZM177.698 73.5219C177.698 74.8407 177.392 75.8538 176.781 76.5614C176.171 77.2368 175.366 77.6871 174.369 77.9123C173.404 78.1374 172.359 78.25 171.233 78.25H151.887V66.671H177.698V73.5219ZM161.777 55.9123C161.777 56.0731 161.568 56.3304 161.15 56.6842C160.764 57.038 160.281 57.424 159.702 57.8421C159.123 58.2602 158.576 58.6461 158.062 59C157.58 59.3216 157.242 59.5468 157.049 59.6754C157.37 60.7047 157.821 61.6374 158.4 62.4737C159.011 63.31 159.574 64.1944 160.088 65.1272C160.12 65.1915 160.137 65.2558 160.137 65.3202C160.168 65.3845 160.185 65.4488 160.185 65.5131C160.185 65.7383 160.088 65.9152 159.895 66.0438C159.734 66.1725 159.541 66.2368 159.316 66.2368C158.995 66.2368 158.48 66.0277 157.773 65.6096C157.065 65.1915 156.309 64.693 155.505 64.114C154.701 63.5029 153.978 62.924 153.334 62.3772C152.69 61.7982 152.241 61.364 151.983 61.0745C152.916 59.9488 153.752 58.7749 154.492 57.5526C155.232 56.2982 155.939 55.0277 156.615 53.7412C157.355 54.0628 158.127 54.3202 158.93 54.5131C159.767 54.674 160.539 54.9473 161.246 55.3333C161.375 55.3977 161.487 55.4781 161.584 55.5745C161.712 55.6389 161.777 55.7514 161.777 55.9123ZM169.593 55.9123C169.593 56.0731 169.383 56.3304 168.966 56.6842C168.58 57.038 168.097 57.424 167.518 57.8421C166.939 58.2602 166.392 58.6461 165.878 59C165.395 59.3216 165.058 59.5468 164.865 59.6754C165.186 60.7047 165.637 61.6374 166.216 62.4737C166.826 63.31 167.39 64.1944 167.904 65.1272C167.969 65.2558 168.001 65.3845 168.001 65.5131C168.001 65.7383 167.904 65.9152 167.711 66.0438C167.55 66.1725 167.357 66.2368 167.132 66.2368C166.811 66.2368 166.296 66.0277 165.588 65.6096C164.881 65.1915 164.125 64.693 163.321 64.114C162.517 63.5029 161.793 62.924 161.15 62.3772C160.506 61.7982 160.057 61.364 159.799 61.0745C160.732 59.9488 161.568 58.7749 162.308 57.5526C163.048 56.2982 163.755 55.0277 164.43 53.7412C164.623 53.8377 164.993 53.9663 165.54 54.1272C166.119 54.288 166.714 54.4649 167.325 54.6579C167.936 54.8509 168.467 55.06 168.917 55.2851C169.368 55.5102 169.593 55.7193 169.593 55.9123ZM177.553 55.9123C177.553 56.0731 177.344 56.3304 176.926 56.6842C176.54 57.038 176.058 57.424 175.479 57.8421C174.9 58.2602 174.353 58.6461 173.838 59C173.356 59.3216 173.018 59.5468 172.825 59.6754C173.147 60.7047 173.597 61.6374 174.176 62.4737C174.787 63.31 175.35 64.1944 175.865 65.1272C175.929 65.2558 175.961 65.3845 175.961 65.5131C175.961 65.7383 175.865 65.9152 175.672 66.0438C175.511 66.1725 175.318 66.2368 175.093 66.2368C174.771 66.2368 174.256 66.0277 173.549 65.6096C172.842 65.1915 172.085 64.693 171.281 64.114C170.478 63.5029 169.754 62.924 169.11 62.3772C168.467 61.7982 168.017 61.364 167.759 61.0745C168.692 59.9488 169.528 58.7749 170.268 57.5526C171.008 56.2982 171.716 55.0277 172.391 53.7412C172.584 53.8377 172.954 53.9663 173.501 54.1272C174.08 54.288 174.675 54.4649 175.286 54.6579C175.897 54.8509 176.427 55.06 176.878 55.2851C177.328 55.5102 177.553 55.7193 177.553 55.9123Z" fill="white"/>
<path d="M122.243 86.9765C122.243 88.2476 122.092 89.4184 121.791 90.4888C121.49 91.5258 120.938 92.3453 120.135 92.9474C119.366 93.5495 118.245 93.8505 116.774 93.8505C116.037 93.8505 115.218 93.7 114.315 93.3989C113.412 93.0644 112.625 92.7132 111.957 92.3453C111.722 92.2114 111.388 92.0107 110.953 91.7431C110.552 91.4421 110.15 91.141 109.749 90.84C109.348 90.5389 109.063 90.2881 108.896 90.0874C108.83 90.0205 108.796 89.9368 108.796 89.8365C108.796 89.7026 108.88 89.6358 109.047 89.6358C109.08 89.6358 109.097 89.6525 109.097 89.686C109.131 89.686 109.163 89.686 109.197 89.686C109.866 89.8532 110.568 90.0205 111.305 90.1877C112.041 90.3549 112.76 90.4386 113.462 90.4386C114.331 90.4386 114.951 90.2212 115.319 89.7863C115.72 89.3514 115.954 88.7995 116.021 88.1305C116.121 87.4615 116.172 86.7925 116.172 86.1235V72.8772H107.692V99.069H101.621V72.8772H93.8936V93.7H88.2238V70.6193H101.621V65.7523H107.692V70.6193H122.243V86.9765ZM129.468 61.2365C129.468 62.2735 129.117 63.0595 128.414 63.5947C127.712 64.0965 126.875 64.3474 125.906 64.3474H82.2529V61.7382H102.072C101.872 60.233 101.637 58.7444 101.37 57.2726C101.135 55.7674 100.935 54.2621 100.768 52.7568C101.069 52.7568 101.637 52.7903 102.474 52.8572C103.31 52.8907 104.213 52.9408 105.183 53.0077C106.187 53.0746 107.073 53.1582 107.842 53.2586C108.645 53.3255 109.131 53.4091 109.297 53.5095C109.565 53.6433 109.733 53.777 109.799 53.9109C109.866 54.0112 109.9 54.2119 109.9 54.513C109.9 54.6802 109.765 55.0984 109.498 55.7674C109.231 56.4029 108.912 57.1388 108.545 57.9751C108.177 58.7779 107.826 59.5472 107.491 60.2832C107.19 60.9856 106.989 61.4707 106.889 61.7382H122.544C122.61 60.8351 122.929 60.0156 123.497 59.2796C124.065 58.5103 124.835 58.1256 125.805 58.1256C126.708 58.1256 127.545 58.3932 128.314 58.9284C129.083 59.4637 129.468 60.233 129.468 61.2365Z" fill="white"/>
<path d="M77.4635 54.9961C77.4635 55.8453 77.1548 56.5593 76.5372 57.1382C75.9583 57.7172 75.2442 58.0067 74.3951 58.0067C68.4512 58.0067 62.5074 58.0067 56.5635 58.0067C50.6583 57.9681 44.7337 57.9488 38.7898 57.9488L45.6793 61.0172C44.5214 63.0242 43.267 64.9733 41.9162 66.8646C40.5653 68.7172 39.1372 70.5119 37.6319 72.2488H40.8741V98.9385H34.5056V75.1435C33.4249 75.9926 32.3056 76.8032 31.1477 77.5751C29.9898 78.347 28.7741 78.9839 27.5004 79.4856C27.346 79.5242 27.1144 79.6207 26.8056 79.7751C26.5355 79.8909 26.3039 79.9488 26.1109 79.9488C25.7635 79.9488 25.5898 79.7751 25.5898 79.4277C25.5898 79.2733 25.6477 79.1382 25.7635 79.0225C26.8828 77.7874 27.9442 76.5716 28.9477 75.3751C29.9898 74.1786 30.9548 72.9049 31.8425 71.554C33.2705 69.4312 34.5635 67.2312 35.7214 64.954C36.9179 62.6768 37.9407 60.3418 38.7898 57.9488H26.8056V55.2277H48.3425C48.1109 52.9119 47.9951 50.5768 47.9951 48.2225C47.9951 47.8365 47.9951 47.4698 47.9951 47.1225C47.9951 46.7751 48.0144 46.4084 48.053 46.0225C48.4004 46.0611 49.0372 46.119 49.9635 46.1961C50.9284 46.2347 51.9512 46.3119 53.0319 46.4277C54.1512 46.5049 55.1162 46.6014 55.9267 46.7172C56.7758 46.833 57.2776 46.9681 57.4319 47.1225C57.5477 47.2382 57.6056 47.354 57.6056 47.4698C57.6442 47.5856 57.6635 47.7207 57.6635 47.8751C57.6635 48.1453 57.4898 48.6277 57.1425 49.3225C56.7951 49.9786 56.3705 50.7119 55.8688 51.5225C55.4056 52.333 54.9425 53.0856 54.4793 53.7804C54.0548 54.4365 53.7267 54.9189 53.4951 55.2277H70.3425C70.3425 54.2242 70.6898 53.3944 71.3846 52.7382C72.1179 52.0821 72.967 51.754 73.9319 51.754C74.7425 51.754 75.5337 52.0821 76.3056 52.7382C77.0776 53.3558 77.4635 54.1084 77.4635 54.9961ZM79.1425 96.6228C79.1425 97.4719 78.7565 98.1473 77.9846 98.6491C77.2126 99.1508 76.4407 99.4017 75.6688 99.4017C75.3986 99.4017 75.1477 99.3824 74.9162 99.3438C74.6846 99.3438 74.4337 99.3245 74.1635 99.2859C71.0372 98.707 68.046 97.5298 65.1898 95.754C62.3337 93.9786 59.767 92.0102 57.4898 89.8488C56.3319 90.7751 54.9811 91.6821 53.4372 92.5698C51.8934 93.4575 50.2916 94.1909 48.6319 94.7698C46.9723 95.3488 45.3898 95.6382 43.8846 95.6382C43.7302 95.6382 43.5372 95.5997 43.3056 95.5225C43.1127 95.4839 43.0162 95.3681 43.0162 95.1751C43.0162 94.9821 43.1319 94.847 43.3635 94.7698C43.9425 94.4611 44.5214 94.1716 45.1004 93.9014C45.6793 93.6312 46.239 93.3225 46.7793 92.9751C49.5969 91.1997 52.1249 89.1154 54.3635 86.7225C53.2442 85.3716 52.2021 84.0014 51.2372 82.6119C50.3109 81.1839 49.4039 79.7172 48.5162 78.2119L53.1477 74.2172C53.8039 75.6453 54.5372 77.0154 55.3477 78.3277C56.1969 79.6014 57.0653 80.8558 57.953 82.0909C58.5319 81.319 59.053 80.4891 59.5162 79.6014C59.9793 78.7137 60.4039 77.8453 60.7898 76.9961C59.7477 76.4558 58.6863 75.954 57.6056 75.4909C56.5635 74.9891 55.5021 74.526 54.4214 74.1014C54.9232 73.4067 55.4249 72.7119 55.9267 72.0172C56.467 71.2839 56.9881 70.5891 57.4898 69.933C58.3776 70.5891 59.1688 71.3418 59.8635 72.1909C60.5583 73.0014 61.2144 73.8505 61.8319 74.7383C62.2179 73.6576 62.5653 72.5575 62.8741 71.4382C63.2214 70.3189 63.4916 69.1997 63.6846 68.0804H55.6372C54.7881 69.2383 53.7846 70.5312 52.6267 71.9593C51.4688 73.3488 50.2337 74.6418 48.9214 75.8383C47.6477 77.0347 46.3355 77.9418 44.9846 78.5593C44.8302 78.5979 44.6758 78.6558 44.5214 78.733C44.4056 78.7716 44.2705 78.7909 44.1162 78.7909C43.7688 78.7909 43.5951 78.5979 43.5951 78.2119C43.5951 78.1347 43.7109 77.9225 43.9425 77.5751C44.2127 77.1891 44.5214 76.7453 44.8688 76.2435C45.2162 75.7418 45.5442 75.2786 45.853 74.854C46.1618 74.4295 46.3548 74.14 46.4319 73.9856C47.8986 71.554 49.153 69.0453 50.1951 66.4593C51.2758 63.8347 52.2021 61.1716 52.9741 58.4698L59.6319 61.0172C58.9372 62.4453 58.1846 63.8926 57.3741 65.3593H71.5583C70.9021 69.1418 69.6863 72.8663 67.9109 76.533C66.1355 80.1611 63.9355 83.3839 61.3109 86.2014C62.8162 88.2084 64.5337 90.0225 66.4635 91.6435C68.4319 93.2646 70.4776 94.6926 72.6004 95.9277C72.9091 95.2716 73.3337 94.6926 73.874 94.1909C74.453 93.6891 75.1284 93.4383 75.9004 93.4383C76.8267 93.4383 77.5986 93.7277 78.2162 94.3067C78.8337 94.8856 79.1425 95.6575 79.1425 96.6228Z" fill="white"/>
<path d="M176.677 37.7197C176.741 37.7197 176.816 37.7226 176.903 37.7284C176.99 37.7342 177.059 37.7429 177.111 37.7545L177.016 38.9703C176.975 38.9587 176.914 38.95 176.833 38.9442C176.758 38.9326 176.691 38.9268 176.634 38.9268C176.466 38.9268 176.304 38.95 176.147 38.9963C175.991 39.0368 175.849 39.1034 175.722 39.196C175.6 39.2887 175.502 39.4131 175.426 39.5695C175.357 39.72 175.322 39.9081 175.322 40.1339V42.5481H174.028V37.8066H175.01L175.201 38.6055H175.261C175.354 38.4434 175.47 38.2958 175.609 38.1626C175.748 38.0295 175.907 37.9224 176.086 37.8413C176.272 37.7603 176.469 37.7197 176.677 37.7197Z" fill="white"/>
<path d="M170.852 37.7197C171.292 37.7197 171.668 37.8037 171.981 37.9716C172.299 38.1395 172.545 38.3826 172.719 38.701C172.893 39.0195 172.979 39.4103 172.979 39.8734V40.4987H169.923C169.934 40.8634 170.041 41.15 170.244 41.3584C170.452 41.5668 170.739 41.671 171.104 41.671C171.411 41.671 171.688 41.6421 171.937 41.5842C172.186 41.5205 172.444 41.425 172.71 41.2976V42.2963C172.479 42.4121 172.233 42.496 171.972 42.5481C171.717 42.606 171.408 42.635 171.043 42.635C170.568 42.635 170.148 42.5481 169.784 42.3745C169.419 42.195 169.132 41.9258 168.924 41.5668C168.716 41.2079 168.611 40.7563 168.611 40.2121C168.611 39.6563 168.704 39.196 168.889 38.8313C169.08 38.4608 169.344 38.1829 169.679 37.9976C170.015 37.8124 170.406 37.7197 170.852 37.7197ZM170.861 38.6403C170.612 38.6403 170.403 38.7213 170.235 38.8834C170.073 39.0455 169.978 39.2974 169.949 39.6389H171.764C171.764 39.4479 171.729 39.2771 171.659 39.1266C171.596 38.976 171.497 38.8574 171.364 38.7705C171.231 38.6837 171.063 38.6403 170.861 38.6403Z" fill="white"/>
<path d="M167.13 41.6022C167.275 41.6022 167.414 41.5877 167.547 41.5588C167.68 41.5298 167.813 41.4951 167.947 41.4545V42.4185C167.808 42.4764 167.634 42.5256 167.426 42.5661C167.223 42.6124 167 42.6356 166.757 42.6356C166.473 42.6356 166.218 42.5893 165.993 42.4966C165.773 42.404 165.596 42.2448 165.463 42.019C165.336 41.7874 165.272 41.469 165.272 41.0638V38.7798H164.655V38.2327L165.367 37.7985L165.741 36.7998H166.566V37.8072H167.894V38.7798H166.566V41.0638C166.566 41.2432 166.618 41.3793 166.722 41.4719C166.826 41.5588 166.962 41.6022 167.13 41.6022Z" fill="white"/>
<path d="M162.117 37.7197C162.626 37.7197 163.035 37.8587 163.341 38.1366C163.648 38.4087 163.802 38.8487 163.802 39.4566V42.5481H162.509V39.7779C162.509 39.4363 162.448 39.1816 162.326 39.0137C162.205 38.84 162.011 38.7531 161.744 38.7531C161.351 38.7531 161.081 38.8892 160.936 39.1613C160.791 39.4276 160.72 39.8126 160.72 40.3163V42.5481H159.426V37.8066H160.416L160.588 38.4145H160.659C160.763 38.2524 160.89 38.1221 161.04 38.0237C161.191 37.9195 161.359 37.8442 161.545 37.7979C161.73 37.7458 161.92 37.7197 162.117 37.7197Z" fill="white"/>
<path d="M158.068 37.8066V42.5482H157.078L156.905 41.9403H156.835C156.737 42.1024 156.609 42.2356 156.453 42.3398C156.302 42.4382 156.135 42.5106 155.949 42.5569C155.764 42.609 155.573 42.6351 155.376 42.6351C155.04 42.6351 154.745 42.5743 154.49 42.4527C154.236 42.3311 154.039 42.143 153.9 41.8882C153.761 41.6335 153.691 41.3035 153.691 40.8982V37.8066H154.985V40.5769C154.985 40.9127 155.046 41.1674 155.168 41.3411C155.289 41.5148 155.483 41.6016 155.75 41.6016C156.016 41.6016 156.221 41.5409 156.366 41.4193C156.517 41.2977 156.621 41.1211 156.679 40.8895C156.742 40.658 156.774 40.3743 156.774 40.0385V37.8066H158.068Z" fill="white"/>
<path d="M152.262 42.5482H150.951V39.8734H148.493V42.5482H147.182V36.3477H148.493V38.7792H150.951V36.3477H152.262V42.5482Z" fill="white"/>
<path d="M143.053 41.6022C143.198 41.6022 143.337 41.5877 143.47 41.5588C143.603 41.5298 143.736 41.4951 143.869 41.4545V42.4185C143.73 42.4764 143.557 42.5256 143.348 42.5661C143.146 42.6124 142.923 42.6356 142.68 42.6356C142.396 42.6356 142.141 42.5893 141.915 42.4966C141.695 42.404 141.519 42.2448 141.386 42.019C141.258 41.7874 141.195 41.469 141.195 41.0638V38.7798H140.578V38.2327L141.29 37.7985L141.664 36.7998H142.489V37.8072H143.817V38.7798H142.489V41.0638C142.489 41.2432 142.541 41.3793 142.645 41.4719C142.749 41.5588 142.885 41.6022 143.053 41.6022Z" fill="white"/>
<path d="M137.879 37.7197C138.319 37.7197 138.696 37.8037 139.008 37.9716C139.327 38.1395 139.573 38.3826 139.746 38.701C139.92 39.0195 140.007 39.4103 140.007 39.8734V40.4987H136.95C136.962 40.8634 137.069 41.15 137.271 41.3584C137.48 41.5668 137.766 41.671 138.131 41.671C138.438 41.671 138.716 41.6421 138.965 41.5842C139.214 41.5205 139.471 41.425 139.738 41.2976V42.2963C139.506 42.4121 139.26 42.496 138.999 42.5481C138.745 42.606 138.435 42.635 138.07 42.635C137.596 42.635 137.176 42.5481 136.811 42.3745C136.446 42.195 136.16 41.9258 135.951 41.5668C135.743 41.2079 135.639 40.7563 135.639 40.2121C135.639 39.6563 135.731 39.196 135.917 38.8313C136.108 38.4608 136.371 38.1829 136.707 37.9976C137.043 37.8124 137.433 37.7197 137.879 37.7197ZM137.888 38.6403C137.639 38.6403 137.431 38.7213 137.263 38.8834C137.101 39.0455 137.005 39.2974 136.976 39.6389H138.791C138.791 39.4479 138.756 39.2771 138.687 39.1266C138.623 38.976 138.525 38.8574 138.392 38.7705C138.258 38.6837 138.091 38.6403 137.888 38.6403Z" fill="white"/>
<path d="M131.834 38.9009C131.834 39.0803 131.825 39.2598 131.808 39.4393C131.796 39.613 131.782 39.7896 131.765 39.969H131.782C131.84 39.888 131.898 39.8069 131.956 39.7259C132.019 39.6448 132.083 39.5638 132.147 39.4827C132.21 39.4017 132.277 39.3235 132.346 39.2482L133.675 37.8067H135.134L133.25 39.8648L135.247 42.5482H133.753L132.39 40.629L131.834 41.0719V42.5482H130.54V35.9482H131.834V38.9009Z" fill="white"/>
<path d="M129.245 37.7197C129.309 37.7197 129.384 37.7226 129.471 37.7284C129.558 37.7342 129.627 37.7429 129.68 37.7545L129.584 38.9703C129.544 38.9587 129.483 38.95 129.402 38.9442C129.326 38.9326 129.26 38.9268 129.202 38.9268C129.034 38.9268 128.872 38.95 128.716 38.9963C128.559 39.0368 128.417 39.1034 128.29 39.196C128.169 39.2887 128.07 39.4131 127.995 39.5695C127.925 39.72 127.891 39.9081 127.891 40.1339V42.5481H126.597V37.8066H127.578L127.769 38.6055H127.83C127.922 38.4434 128.038 38.2958 128.177 38.1626C128.316 38.0295 128.475 37.9224 128.655 37.8413C128.84 37.7603 129.037 37.7197 129.245 37.7197Z" fill="white"/>
<path d="M123.3 37.7109C123.937 37.7109 124.423 37.8499 124.759 38.1278C125.1 38.3999 125.271 38.8196 125.271 39.387V42.548H124.368L124.116 41.9054H124.081C123.948 42.0733 123.809 42.2123 123.665 42.3223C123.526 42.4323 123.364 42.5104 123.178 42.5567C122.999 42.6088 122.776 42.6349 122.51 42.6349C122.232 42.6349 121.98 42.5828 121.754 42.4786C121.534 42.3686 121.36 42.2036 121.233 41.9836C121.106 41.7578 121.042 41.4741 121.042 41.1325C121.042 40.6288 121.219 40.2583 121.572 40.0209C121.925 39.7778 122.455 39.6446 123.161 39.6215L123.986 39.5954V39.387C123.986 39.138 123.919 38.9557 123.786 38.8399C123.659 38.7241 123.479 38.6662 123.248 38.6662C123.016 38.6662 122.79 38.7009 122.57 38.7704C122.35 38.8341 122.13 38.9152 121.91 39.0136L121.485 38.1365C121.74 38.0033 122.02 37.8991 122.327 37.8238C122.64 37.7486 122.964 37.7109 123.3 37.7109ZM123.482 40.3683C123.065 40.3799 122.776 40.4552 122.614 40.5941C122.452 40.733 122.371 40.9154 122.371 41.1412C122.371 41.338 122.429 41.4799 122.544 41.5667C122.66 41.6478 122.811 41.6883 122.996 41.6883C123.274 41.6883 123.508 41.6073 123.699 41.4452C123.89 41.2773 123.986 41.0428 123.986 40.7417V40.3509L123.482 40.3683Z" fill="white"/>
<path d="M115.89 42.5482L114.397 37.685H114.362C114.368 37.8008 114.376 37.9745 114.388 38.2061C114.399 38.4377 114.411 38.6866 114.423 38.9529C114.434 39.2134 114.44 39.4508 114.44 39.665V42.5482H113.268V36.3477H115.057L116.524 41.0892H116.55L118.105 36.3477H119.894V42.5482H118.669V39.6129C118.669 39.4161 118.672 39.1903 118.678 38.9356C118.689 38.6808 118.698 38.4405 118.704 38.2148C118.715 37.9832 118.724 37.8095 118.73 37.6937H118.695L117.097 42.5482H115.89Z" fill="white"/>
<path d="M111.395 41.6022C111.54 41.6022 111.679 41.5877 111.812 41.5588C111.945 41.5298 112.078 41.4951 112.211 41.4545V42.4185C112.072 42.4764 111.899 42.5256 111.69 42.5661C111.488 42.6124 111.265 42.6356 111.022 42.6356C110.738 42.6356 110.483 42.5893 110.257 42.4966C110.037 42.404 109.861 42.2448 109.728 42.019C109.6 41.7874 109.537 41.469 109.537 41.0638V38.7798H108.92V38.2327L109.632 37.7985L110.005 36.7998H110.83V37.8072H112.159V38.7798H110.83V41.0638C110.83 41.2432 110.883 41.3793 110.987 41.4719C111.091 41.5588 111.227 41.6022 111.395 41.6022Z" fill="white"/>
<path d="M104.984 37.2943C104.984 37.5259 104.976 37.7488 104.958 37.963C104.947 38.1772 104.935 38.3277 104.924 38.4146H104.993C105.097 38.2525 105.219 38.1222 105.358 38.0238C105.497 37.9196 105.65 37.8443 105.818 37.798C105.992 37.7459 106.174 37.7198 106.365 37.7198C106.707 37.7198 107.005 37.7806 107.26 37.9022C107.514 38.0238 107.711 38.2119 107.85 38.4667C107.995 38.7214 108.067 39.0514 108.067 39.4567V42.5482H106.773V39.778C106.773 39.4364 106.71 39.1817 106.582 39.0138C106.461 38.8401 106.27 38.7532 106.009 38.7532C105.749 38.7532 105.543 38.814 105.393 38.9356C105.248 39.0572 105.144 39.2338 105.08 39.4653C105.016 39.6969 104.984 39.9806 104.984 40.3164V42.5482H103.69V35.9482H104.984V37.2943Z" fill="white"/>
<path d="M99.7319 37.7197C100.021 37.7197 100.282 37.7776 100.513 37.8934C100.745 38.0092 100.942 38.1829 101.104 38.4145H101.139L101.243 37.8066H102.337V42.5568C102.337 43.0084 102.247 43.3876 102.068 43.6945C101.894 44.0013 101.631 44.2329 101.278 44.3892C100.925 44.5513 100.487 44.6324 99.9664 44.6324C99.6306 44.6324 99.3179 44.6121 99.0285 44.5716C98.7448 44.531 98.4669 44.4587 98.1948 44.3545V43.321C98.3916 43.4021 98.5885 43.4687 98.7853 43.5208C98.9879 43.5787 99.1935 43.6192 99.4019 43.6424C99.6161 43.6713 99.8303 43.6858 100.045 43.6858C100.38 43.6858 100.629 43.596 100.791 43.4166C100.959 43.2371 101.043 42.9679 101.043 42.6089V42.5134C101.043 42.415 101.046 42.3137 101.052 42.2095C101.063 42.1053 101.072 42.0126 101.078 41.9316H101.043C100.881 42.1805 100.687 42.36 100.461 42.47C100.236 42.58 99.9808 42.635 99.6971 42.635C99.1356 42.635 98.6956 42.4208 98.3772 41.9924C98.0645 41.5581 97.9082 40.956 97.9082 40.186C97.9082 39.665 97.9806 39.2221 98.1253 38.8574C98.27 38.4868 98.4785 38.206 98.7506 38.015C99.0285 37.8181 99.3556 37.7197 99.7319 37.7197ZM100.14 38.7705C99.9374 38.7705 99.7666 38.8255 99.6277 38.9355C99.4945 39.0397 99.3932 39.1989 99.3237 39.4131C99.26 39.6216 99.2282 39.885 99.2282 40.2034C99.2282 40.6781 99.3035 41.0342 99.454 41.2716C99.6045 41.5031 99.839 41.6189 100.157 41.6189C100.325 41.6189 100.47 41.5987 100.592 41.5581C100.713 41.5118 100.812 41.4395 100.887 41.341C100.968 41.2368 101.029 41.1037 101.069 40.9416C101.11 40.7795 101.13 40.5826 101.13 40.351V40.1947C101.13 39.8531 101.095 39.5781 101.026 39.3697C100.956 39.1613 100.849 39.0108 100.705 38.9181C100.56 38.8197 100.372 38.7705 100.14 38.7705Z" fill="white"/>
<path d="M96.8428 37.8067V42.5482H95.5492V37.8067H96.8428ZM96.2005 35.9482C96.3915 35.9482 96.5563 35.9946 96.6952 36.0872C96.8341 36.174 96.9036 36.339 96.9036 36.5822C96.9036 36.8196 96.8341 36.9846 96.6952 37.0772C96.5563 37.1698 96.3915 37.2161 96.2005 37.2161C96.0037 37.2161 95.8358 37.1698 95.6968 37.0772C95.5636 36.9846 95.4971 36.8196 95.4971 36.5822C95.4971 36.339 95.5636 36.174 95.6968 36.0872C95.8358 35.9946 96.0037 35.9482 96.2005 35.9482Z" fill="white"/>
<path d="M94.086 42.5482H92.4186L89.7178 37.8587H89.6831C89.6889 38.0034 89.6947 38.1511 89.7004 38.3016C89.7062 38.4463 89.712 38.594 89.7178 38.7445C89.7294 38.8892 89.7381 39.0369 89.7439 39.1874C89.7497 39.3321 89.7554 39.4798 89.7612 39.6303V42.5482H88.5889V36.3477H90.2476L92.9397 40.9937H92.9657C92.9599 40.849 92.9541 40.7071 92.9483 40.5682C92.9426 40.4234 92.9368 40.2816 92.931 40.1427C92.931 39.9979 92.9281 39.8561 92.9223 39.7171C92.9165 39.5724 92.9107 39.4277 92.9049 39.2829V36.3477H94.086V42.5482Z" fill="white"/>
</g>
<defs>
<clipPath id="clip0_2221_51958">
<rect width="288.509" height="110" fill="white"/>
</clipPath>
</defs>
</svg>
