<svg width="317" height="317" viewBox="0 0 317 317" fill="none" xmlns="http://www.w3.org/2000/svg">
<g clip-path="url(#clip0_2221_52646)">
<path d="M309.197 158.5C309.197 241.727 241.727 309.197 158.5 309.197C75.272 309.197 7.80273 241.727 7.80273 158.5C7.80273 75.272 75.272 7.80273 158.5 7.80273C241.727 7.80273 309.197 75.272 309.197 158.5Z" fill="#E1D1B2"/>
<path fill-rule="evenodd" clip-rule="evenodd" d="M158.5 15.1181C79.3121 15.1181 15.1181 79.3121 15.1181 158.5C15.1181 237.687 79.3121 301.881 158.5 301.881C237.687 301.881 301.881 237.687 301.881 158.5C301.881 79.3121 237.687 15.1181 158.5 15.1181ZM0.487305 158.5C0.487305 71.2319 71.2319 0.487305 158.5 0.487305C245.767 0.487305 316.512 71.2319 316.512 158.5C316.512 245.767 245.767 316.512 158.5 316.512C71.2319 316.512 0.487305 245.767 0.487305 158.5Z" fill="#A32C2D"/>
<path fill-rule="evenodd" clip-rule="evenodd" d="M158.5 11.7044C77.4269 11.7044 11.7044 77.4269 11.7044 158.5C11.7044 239.573 77.4269 305.295 158.5 305.295C239.573 305.295 305.295 239.573 305.295 158.5C305.295 77.4269 239.573 11.7044 158.5 11.7044ZM3.90137 158.5C3.90137 73.1175 73.1175 3.90137 158.5 3.90137C243.882 3.90137 313.098 73.1175 313.098 158.5C313.098 243.882 243.882 313.098 158.5 313.098C73.1175 313.098 3.90137 243.882 3.90137 158.5Z" fill="#E1D1B2"/>
<path d="M207.73 116.625C207.73 143.311 185.9 164.944 158.971 164.944C132.042 164.944 110.212 143.311 110.212 116.625C110.212 89.9382 132.042 68.3047 158.971 68.3047C185.9 68.3047 207.73 89.9382 207.73 116.625Z" fill="white"/>
<path d="M121.351 33.1631L99.2479 76.6167C99.1309 76.8463 98.97 77.0505 98.7739 77.2175L69.9419 101.768C68.5606 102.944 69.3924 105.204 71.2066 105.204H247.737C249.551 105.204 250.383 102.944 249.001 101.768L218.597 75.8792C218.401 75.7122 218.239 75.5079 218.123 75.2783L196.701 33.1631H121.351Z" fill="white"/>
<path d="M123.639 118.032C126.71 127.058 124.658 135.92 119.056 137.826C113.453 139.732 106.422 133.961 103.351 124.935C100.28 115.909 102.332 107.047 107.934 105.14C113.537 103.234 120.567 109.006 123.639 118.032Z" fill="white"/>
<path fill-rule="evenodd" clip-rule="evenodd" d="M106.448 86.7852C105.991 87.2213 105.538 87.6682 105.093 88.1257C92.783 108.156 91.5721 128.592 101.94 145.767C103.852 147.629 105.938 149.221 108.157 150.546C98.6863 135.573 104.306 116.637 116.249 98.9947C118.769 95.5329 121.176 94.4259 123.854 92.6008L106.448 86.7852Z" fill="white"/>
<path d="M194.55 118.032C191.478 127.058 193.53 135.92 199.133 137.826C204.736 139.732 211.766 133.961 214.838 124.935C217.908 115.909 215.857 107.047 210.254 105.14C204.652 103.234 197.621 109.006 194.55 118.032Z" fill="white"/>
<path fill-rule="evenodd" clip-rule="evenodd" d="M211.74 86.7852C212.197 87.2213 212.65 87.6682 213.096 88.1257C225.405 108.156 226.616 128.592 216.248 145.767C214.336 147.629 212.25 149.221 210.031 150.546C219.502 135.573 213.882 116.637 201.939 98.9947C199.42 95.5329 197.012 94.4259 194.334 92.6008L211.74 86.7852Z" fill="white"/>
<path d="M166.341 139.892C164.201 140.632 161.863 141.042 159.409 141.042C153.825 141.042 148.821 138.922 145.444 135.575H141.84C145.107 141.015 151.749 144.738 159.41 144.738C167.072 144.738 173.713 141.015 176.982 135.575H175.371C175.183 135.063 174.943 134.551 174.65 134.046C172.677 130.648 169.037 128.942 166.525 130.235C164.013 131.528 163.576 135.331 165.55 138.728C165.791 139.142 166.057 139.53 166.341 139.892Z" fill="#A32C2D"/>
<path d="M130.877 196.968C126.145 191.887 120.002 185.292 112.868 175.64C86.4604 130.86 53.9536 145.991 42.4404 168.239C34.1254 184.306 58.5596 205.972 81.6515 217.923C103.04 228.992 126.628 236.958 136.599 225.306L182.247 264.742C181.445 266.976 181.954 269.473 183.734 271.011C186.098 273.054 189.809 272.633 192.021 270.072C192.688 269.3 193.143 268.421 193.388 267.515C194.25 267.141 195.052 266.563 195.72 265.791C197.932 263.23 197.809 259.499 195.445 257.456C193.664 255.918 191.12 255.777 189.027 256.895L141.134 215.519C142.198 209.124 138.25 204.885 130.877 196.968Z" fill="white"/>
<path d="M258.494 155.566C262.403 155.141 266.606 160.287 265.41 164.032L257.567 188.596C256.548 191.787 252.231 191.554 249.459 188.161L243.734 181.152L236.036 187.439C236.003 187.684 235.948 187.924 235.873 188.16L228.03 212.724C227.012 215.914 222.695 215.683 219.923 212.289L214.197 205.279L207.047 211.12C207.013 211.364 206.959 211.605 206.884 211.84L199.041 236.405C198.022 239.595 193.705 239.363 190.933 235.97L185.207 228.96L132.745 271.815L126.791 264.833L179.404 221.856L173.141 214.189C170.369 210.796 171.003 206.519 174.332 206.158L199.968 203.374C200.58 203.308 201.199 203.378 201.804 203.558L208.394 198.175L202.131 190.508C199.359 187.114 199.993 182.838 203.323 182.477L228.958 179.694C229.57 179.626 230.19 179.697 230.794 179.877L237.93 174.047L231.667 166.381C228.895 162.987 229.529 158.71 232.859 158.349L258.494 155.566Z" fill="white"/>
<path d="M281.36 211.951C281.36 212.848 280.989 213.648 280.248 214.351C279.506 215.053 278.687 215.404 277.79 215.404C277.282 215.404 276.6 215.287 275.741 215.053C274.883 214.819 274.044 214.526 273.225 214.175C272.406 213.863 271.762 213.57 271.294 213.297C268.133 211.385 265.344 209.084 262.925 206.391C260.506 203.699 258.419 200.754 256.663 197.554C254.907 194.355 253.425 191.039 252.215 187.606C251.357 190.961 250.225 194.043 248.821 196.852C247.416 199.622 245.524 202.295 243.144 204.87C239.438 208.888 234.99 211.873 229.801 213.824C229.294 214.019 228.689 214.195 227.987 214.351C227.323 214.546 226.855 214.643 226.582 214.643C226.426 214.643 226.231 214.604 225.997 214.526C225.802 214.487 225.704 214.37 225.704 214.175C225.704 213.824 225.86 213.551 226.172 213.356C226.484 213.161 226.758 212.985 226.992 212.829C230.932 210.215 234.17 207.035 236.706 203.29C239.242 199.505 241.291 195.428 242.851 191.058C243.437 189.42 243.944 187.488 244.373 185.265C244.841 183.002 245.231 180.661 245.543 178.242C245.895 175.784 246.148 173.404 246.304 171.102C246.46 168.8 246.538 166.771 246.538 165.016L255.902 165.659C255.746 167.142 255.492 168.898 255.141 170.926C254.829 172.955 254.458 175.004 254.029 177.071L257.658 175.667C258.087 178.554 258.77 181.656 259.706 184.972C260.642 188.249 261.813 191.527 263.217 194.804C264.661 198.081 266.3 201.144 268.133 203.992C269.967 206.84 271.996 209.259 274.22 211.249C274.61 210.625 275.098 210.039 275.683 209.493C276.268 208.947 276.951 208.674 277.731 208.674C278.55 208.674 279.35 209.005 280.131 209.669C280.95 210.332 281.36 211.093 281.36 211.951Z" fill="#A32C2D"/>
<path d="M209.669 187.957C209.669 188.503 209.376 188.776 208.791 188.776C208.557 188.776 208.011 188.64 207.152 188.367C206.333 188.055 205.494 187.742 204.636 187.43C203.778 187.118 203.192 186.904 202.88 186.787C201.632 187.255 200.149 187.723 198.432 188.191C196.716 188.659 195.194 188.893 193.868 188.893C193.516 188.893 193.341 188.718 193.341 188.367C193.341 188.094 193.458 187.898 193.692 187.781C193.926 187.664 194.18 187.567 194.453 187.489C194.726 187.372 194.999 187.255 195.272 187.138C195.857 186.826 196.423 186.513 196.969 186.201C197.555 185.889 198.12 185.577 198.667 185.265C197.886 184.953 197.086 184.68 196.267 184.446C195.487 184.172 194.687 183.919 193.868 183.685L196.443 180.642C197.379 180.915 198.296 181.246 199.193 181.636C200.13 181.988 201.027 182.378 201.885 182.807C202.314 182.456 202.744 182.085 203.173 181.695C203.602 181.305 203.992 180.895 204.343 180.466L209.142 182.222C209.376 182.3 209.493 182.436 209.493 182.631C209.493 182.787 209.24 183.061 208.733 183.451C208.225 183.802 207.679 184.153 207.094 184.504C206.548 184.816 206.177 185.031 205.982 185.148C206.255 185.265 206.684 185.499 207.269 185.85C207.855 186.162 208.401 186.513 208.908 186.904C209.415 187.255 209.669 187.606 209.669 187.957ZM210.956 180.232H192.931V189.479H208.323C210.079 189.479 210.956 188.542 210.956 186.669V180.232ZM186.552 167.123C186.552 167.474 186.279 168.098 185.733 168.995C185.187 169.854 184.523 170.81 183.743 171.863C182.963 172.878 182.222 173.814 181.519 174.672C180.817 175.531 180.31 176.135 179.998 176.486C181.48 179.608 182.534 183.022 183.158 186.728C183.821 190.434 184.153 194.004 184.153 197.438C184.153 198.647 184.094 200.091 183.977 201.768C183.86 203.407 183.626 205.104 183.275 206.86C182.924 208.577 182.397 210.176 181.695 211.659C181.032 213.18 180.134 214.409 179.003 215.346C177.91 216.282 176.525 216.75 174.848 216.75C174.301 216.75 173.677 216.516 172.975 216.048C172.273 215.619 171.57 215.073 170.868 214.409C170.205 213.746 169.6 213.083 169.054 212.42C168.508 211.756 168.098 211.21 167.825 210.781C167.747 210.625 167.708 210.488 167.708 210.371C167.708 210.176 167.786 210.079 167.942 210.079C168.02 210.079 168.137 210.118 168.293 210.196C169.229 210.703 170.068 211.113 170.81 211.425C171.551 211.698 172.468 211.834 173.56 211.834C174.301 211.834 174.887 211.581 175.316 211.074C175.745 210.527 176.057 209.942 176.252 209.318C176.642 208.225 176.935 206.821 177.13 205.104C177.325 203.388 177.462 201.651 177.54 199.896C177.657 198.101 177.715 196.618 177.715 195.448C176.389 197.399 174.945 199.135 173.385 200.656C171.863 202.139 170.01 203.388 167.825 204.402C167.63 204.48 167.259 204.636 166.713 204.87C166.206 205.065 165.855 205.163 165.66 205.163C165.308 205.163 165.133 205.026 165.133 204.753C165.133 204.597 165.152 204.499 165.191 204.46C165.269 204.382 165.347 204.304 165.425 204.226C165.894 203.719 166.342 203.192 166.771 202.646C167.24 202.1 167.669 201.554 168.059 201.008C169.268 199.408 170.458 197.516 171.629 195.331C172.799 193.146 173.853 190.903 174.789 188.601C175.764 186.299 176.506 184.192 177.013 182.28C176.935 181.968 176.857 181.656 176.779 181.344C176.701 180.993 176.584 180.661 176.428 180.349C175.765 181.051 174.867 181.851 173.736 182.748C172.643 183.607 171.473 184.368 170.224 185.031C169.015 185.694 167.903 186.026 166.889 186.026C166.615 186.026 166.479 185.909 166.479 185.675C166.479 185.48 166.557 185.304 166.713 185.148C168.157 183.665 169.542 182.163 170.868 180.642C172.195 179.081 173.346 177.384 174.321 175.55C173.892 174.77 173.365 173.989 172.741 173.209C172.117 172.429 171.297 172.039 170.283 172.039C169.659 172.039 169.054 172.175 168.469 172.448C167.883 172.721 167.376 172.995 166.947 173.268C166.557 173.541 166.284 173.677 166.128 173.677C165.855 173.677 165.718 173.56 165.718 173.326C165.718 173.131 165.777 172.956 165.894 172.8C166.518 171.785 167.415 170.888 168.586 170.107C169.756 169.327 170.946 168.937 172.156 168.937C173.014 168.937 173.872 169.191 174.731 169.698C175.589 170.166 176.272 170.712 176.779 171.336C177.364 170.127 177.891 168.898 178.359 167.649C178.866 166.401 179.295 165.133 179.647 163.845L185.967 166.479C186.357 166.635 186.552 166.85 186.552 167.123ZM198.315 206.509C198.315 206.665 198.218 206.84 198.023 207.035C197.867 207.192 197.691 207.27 197.496 207.27C197.418 207.27 197.047 207.114 196.384 206.801C195.721 206.45 195.038 206.099 194.336 205.748C193.673 205.358 193.224 205.124 192.99 205.046V210.664C193.263 210.586 193.77 210.41 194.511 210.137C195.253 209.825 195.955 209.532 196.618 209.259C197.321 208.986 197.691 208.85 197.73 208.85C198.042 208.85 198.198 209.025 198.198 209.376C198.198 209.454 198.179 209.532 198.14 209.611C198.14 209.689 198.12 209.767 198.081 209.845C197.769 210.469 197.301 211.132 196.677 211.834C196.092 212.537 195.526 213.102 194.98 213.532C193.653 214.546 192.346 215.268 191.059 215.697C189.771 216.165 188.308 216.399 186.669 216.399V193.751H192.99V195.858C193.224 195.702 193.556 195.487 193.985 195.214C194.453 194.902 194.804 194.746 195.038 194.746C195.233 194.746 195.37 194.785 195.448 194.863C195.526 194.902 195.623 194.999 195.74 195.155C195.935 195.35 196.209 195.799 196.56 196.501C196.95 197.204 197.301 197.906 197.613 198.608C197.964 199.31 198.14 199.798 198.14 200.071C198.14 200.227 198.042 200.383 197.847 200.539C197.691 200.696 197.516 200.774 197.321 200.774C197.281 200.774 196.93 200.637 196.267 200.364C195.643 200.052 194.98 199.74 194.277 199.428C193.614 199.076 193.185 198.862 192.99 198.784V202.529C193.185 202.412 193.556 202.178 194.102 201.827C194.648 201.437 195.019 201.242 195.214 201.242C195.409 201.242 195.545 201.281 195.623 201.359C195.701 201.398 195.799 201.495 195.916 201.651C196.111 201.885 196.384 202.354 196.735 203.056C197.125 203.719 197.477 204.402 197.789 205.104C198.14 205.767 198.315 206.236 198.315 206.509ZM223.188 214.468C223.188 215.365 222.856 216.087 222.193 216.633C221.569 217.18 220.827 217.453 219.969 217.453C219.345 217.453 218.681 217.258 217.979 216.867C217.316 216.477 216.672 215.99 216.048 215.404C215.463 214.858 214.994 214.351 214.643 213.883C213.239 211.971 212.146 209.786 211.366 207.328C210.586 204.831 210.02 202.432 209.669 200.13C209.474 200.325 209.259 200.422 209.025 200.422C208.947 200.422 208.596 200.286 207.972 200.013C207.347 199.701 206.704 199.388 206.04 199.076C205.416 198.725 204.987 198.511 204.753 198.433V202.178C204.948 202.061 205.319 201.827 205.865 201.476C206.411 201.086 206.762 200.891 206.918 200.891C207.113 200.891 207.25 200.93 207.328 201.008C207.406 201.047 207.523 201.144 207.679 201.3C207.874 201.495 208.147 201.944 208.498 202.646C208.889 203.349 209.24 204.051 209.552 204.753C209.903 205.455 210.079 205.943 210.079 206.216C210.079 206.372 209.981 206.528 209.786 206.684C209.63 206.84 209.454 206.918 209.259 206.918C209.142 206.918 208.752 206.762 208.089 206.45C207.464 206.099 206.801 205.748 206.099 205.397C205.436 205.007 204.987 204.773 204.753 204.695V210.371C205.767 210.02 206.743 209.669 207.679 209.318C208.654 208.928 209.63 208.518 210.605 208.089C210.644 208.05 210.722 208.03 210.839 208.03C211.034 208.03 211.171 208.108 211.249 208.264C211.327 208.382 211.366 208.518 211.366 208.674C211.366 208.791 211.327 208.967 211.249 209.201C210.976 209.786 210.508 210.41 209.844 211.074C209.22 211.698 208.654 212.205 208.147 212.595C206.587 213.805 205.046 214.604 203.524 214.995C202.041 215.424 200.344 215.716 198.432 215.872V193.692H204.753V195.565C204.948 195.448 205.28 195.233 205.748 194.921C206.216 194.57 206.548 194.395 206.743 194.395C207.016 194.395 207.269 194.531 207.504 194.804C207.66 194.96 207.855 195.292 208.089 195.799C208.362 196.267 208.635 196.755 208.908 197.262C209.181 197.769 209.357 198.14 209.435 198.374C209.318 197.516 209.24 196.677 209.201 195.858C209.162 195.038 209.123 194.199 209.084 193.341H216.341C216.301 194.082 216.262 194.824 216.223 195.565C216.223 196.267 216.223 196.989 216.223 197.73C216.223 200.11 216.36 202.646 216.633 205.338C216.945 208.03 217.569 210.488 218.506 212.712C219.169 212.205 219.891 211.951 220.671 211.951C221.334 211.951 221.92 212.205 222.427 212.712C222.934 213.219 223.188 213.805 223.188 214.468ZM217.745 186.026C217.745 187.625 217.374 188.854 216.633 189.713C215.892 190.532 214.916 191.078 213.707 191.351C212.537 191.624 211.269 191.761 209.903 191.761H186.435V177.715H217.745V186.026ZM198.432 164.665C198.432 164.86 198.179 165.172 197.672 165.601C197.203 166.03 196.618 166.499 195.916 167.006C195.214 167.513 194.55 167.981 193.926 168.41C193.341 168.8 192.931 169.074 192.697 169.23C193.087 170.478 193.634 171.61 194.336 172.624C195.077 173.638 195.76 174.711 196.384 175.843C196.423 175.921 196.443 175.999 196.443 176.077C196.482 176.155 196.501 176.233 196.501 176.311C196.501 176.584 196.384 176.799 196.15 176.955C195.955 177.111 195.721 177.189 195.448 177.189C195.058 177.189 194.433 176.935 193.575 176.428C192.717 175.921 191.8 175.316 190.824 174.614C189.849 173.872 188.971 173.17 188.191 172.507C187.411 171.805 186.864 171.278 186.552 170.927C187.684 169.561 188.698 168.137 189.595 166.655C190.493 165.133 191.351 163.592 192.17 162.031C193.068 162.421 194.004 162.734 194.98 162.968C195.994 163.163 196.93 163.494 197.789 163.963C197.945 164.041 198.081 164.138 198.198 164.255C198.354 164.333 198.432 164.47 198.432 164.665ZM207.913 164.665C207.913 164.86 207.66 165.172 207.152 165.601C206.684 166.03 206.099 166.499 205.397 167.006C204.694 167.513 204.031 167.981 203.407 168.41C202.822 168.8 202.412 169.074 202.178 169.23C202.568 170.478 203.114 171.61 203.817 172.624C204.558 173.638 205.241 174.711 205.865 175.843C205.943 175.999 205.982 176.155 205.982 176.311C205.982 176.584 205.865 176.799 205.631 176.955C205.436 177.111 205.202 177.189 204.929 177.189C204.538 177.189 203.914 176.935 203.056 176.428C202.197 175.921 201.281 175.316 200.305 174.614C199.33 173.872 198.452 173.17 197.672 172.507C196.891 171.805 196.345 171.278 196.033 170.927C197.164 169.561 198.179 168.137 199.076 166.655C199.974 165.133 200.832 163.592 201.651 162.031C201.885 162.148 202.334 162.304 202.997 162.499C203.7 162.695 204.421 162.909 205.163 163.143C205.904 163.377 206.548 163.631 207.094 163.904C207.64 164.177 207.913 164.431 207.913 164.665ZM217.569 164.665C217.569 164.86 217.316 165.172 216.809 165.601C216.341 166.03 215.755 166.499 215.053 167.006C214.351 167.513 213.687 167.981 213.063 168.41C212.478 168.8 212.068 169.074 211.834 169.23C212.224 170.478 212.771 171.61 213.473 172.624C214.214 173.638 214.897 174.711 215.521 175.843C215.599 175.999 215.638 176.155 215.638 176.311C215.638 176.584 215.521 176.799 215.287 176.955C215.092 177.111 214.858 177.189 214.585 177.189C214.195 177.189 213.57 176.935 212.712 176.428C211.854 175.921 210.937 175.316 209.961 174.614C208.986 173.872 208.108 173.17 207.328 172.507C206.548 171.805 206.001 171.278 205.689 170.927C206.821 169.561 207.835 168.137 208.733 166.655C209.63 165.133 210.488 163.592 211.308 162.031C211.542 162.148 211.99 162.304 212.654 162.499C213.356 162.695 214.078 162.909 214.819 163.143C215.56 163.377 216.204 163.631 216.75 163.904C217.296 164.177 217.569 164.431 217.569 164.665Z" fill="#A32C2D"/>
<path d="M141.08 202.705C141.08 204.187 140.905 205.553 140.553 206.801C140.202 208.011 139.558 208.967 138.622 209.669C137.725 210.371 136.418 210.722 134.701 210.722C133.843 210.722 132.887 210.547 131.833 210.196C130.78 209.806 129.863 209.396 129.083 208.967C128.81 208.811 128.42 208.577 127.912 208.264C127.444 207.913 126.976 207.562 126.508 207.211C126.04 206.86 125.708 206.567 125.513 206.333C125.435 206.255 125.396 206.158 125.396 206.041C125.396 205.884 125.493 205.806 125.689 205.806C125.728 205.806 125.747 205.826 125.747 205.865C125.786 205.865 125.825 205.865 125.864 205.865C126.644 206.06 127.464 206.255 128.322 206.45C129.18 206.645 130.019 206.743 130.839 206.743C131.853 206.743 132.575 206.489 133.004 205.982C133.472 205.475 133.745 204.831 133.823 204.051C133.94 203.27 133.999 202.49 133.999 201.71V186.26H124.108V216.809H117.027V186.26H108.015V210.547H101.401V183.626H117.027V177.949H124.108V183.626H141.08V202.705ZM149.507 172.682C149.507 173.892 149.098 174.809 148.278 175.433C147.459 176.018 146.484 176.311 145.352 176.311H94.4375V173.268H117.554C117.32 171.512 117.047 169.776 116.735 168.059C116.461 166.303 116.227 164.548 116.032 162.792C116.383 162.792 117.047 162.831 118.022 162.909C118.997 162.948 120.051 163.007 121.182 163.085C122.353 163.163 123.387 163.26 124.284 163.377C125.22 163.455 125.786 163.553 125.981 163.67C126.293 163.826 126.488 163.982 126.566 164.138C126.644 164.255 126.683 164.489 126.683 164.84C126.683 165.035 126.527 165.523 126.215 166.303C125.903 167.045 125.532 167.903 125.103 168.878C124.674 169.815 124.264 170.712 123.874 171.57C123.523 172.39 123.289 172.956 123.172 173.268H141.431C141.509 172.214 141.88 171.258 142.543 170.4C143.206 169.503 144.104 169.054 145.235 169.054C146.289 169.054 147.264 169.366 148.161 169.99C149.059 170.615 149.507 171.512 149.507 172.682Z" fill="#A32C2D"/>
<path d="M88.0568 171.57C88.0568 172.428 87.7447 173.15 87.1204 173.735C86.5352 174.321 85.8134 174.613 84.9551 174.613C78.9467 174.613 72.9383 174.613 66.93 174.613C60.9606 174.574 54.9717 174.555 48.9634 174.555L55.9276 177.656C54.7572 179.685 53.4892 181.656 52.1236 183.567C50.7581 185.44 49.3145 187.254 47.7929 189.01H51.0702V215.989H44.6327V191.936C43.5402 192.794 42.4088 193.614 41.2383 194.394C40.0679 195.174 38.8389 195.818 37.5514 196.325C37.3953 196.364 37.1612 196.462 36.8491 196.618C36.576 196.735 36.3419 196.794 36.1468 196.794C35.7957 196.794 35.6201 196.618 35.6201 196.267C35.6201 196.111 35.6786 195.974 35.7957 195.857C36.9271 194.609 38.0001 193.38 39.0145 192.17C40.0679 190.961 41.0433 189.673 41.9406 188.308C43.3842 186.162 44.6912 183.938 45.8617 181.636C47.0711 179.334 48.105 176.974 48.9634 174.555H36.8491V171.804H58.6197C58.3856 169.463 58.2685 167.103 58.2685 164.723C58.2685 164.333 58.2685 163.962 58.2685 163.611C58.2685 163.26 58.2881 162.889 58.3271 162.499C58.6782 162.538 59.322 162.597 60.2583 162.675C61.2337 162.714 62.2676 162.792 63.3601 162.909C64.4915 162.987 65.4669 163.084 66.2862 163.201C67.1445 163.318 67.6517 163.455 67.8078 163.611C67.9249 163.728 67.9834 163.845 67.9834 163.962C68.0224 164.079 68.0419 164.216 68.0419 164.372C68.0419 164.645 67.8663 165.133 67.5152 165.835C67.1641 166.498 66.7349 167.239 66.2277 168.059C65.7595 168.878 65.2913 169.639 64.8231 170.341C64.394 171.004 64.0623 171.492 63.8282 171.804H80.8585C80.8585 170.79 81.2096 169.951 81.9119 169.288C82.6532 168.624 83.5115 168.293 84.4869 168.293C85.3062 168.293 86.106 168.624 86.8863 169.288C87.6666 169.912 88.0568 170.673 88.0568 171.57ZM89.754 213.648C89.754 214.507 89.3638 215.189 88.5835 215.696C87.8032 216.204 87.0229 216.457 86.2426 216.457C85.9695 216.457 85.7159 216.438 85.4818 216.399C85.2477 216.399 84.9941 216.379 84.721 216.34C81.5607 215.755 78.537 214.565 75.6499 212.77C72.7628 210.976 70.1682 208.986 67.8663 206.801C66.6959 207.737 65.3303 208.654 63.7697 209.552C62.2091 210.449 60.59 211.19 58.9123 211.775C57.2346 212.361 55.635 212.653 54.1134 212.653C53.9573 212.653 53.7623 212.614 53.5282 212.536C53.3331 212.497 53.2356 212.38 53.2356 212.185C53.2356 211.99 53.3526 211.853 53.5867 211.775C54.1719 211.463 54.7572 211.171 55.3424 210.898C55.9276 210.624 56.4933 210.312 57.0396 209.961C59.8877 208.167 62.4432 206.06 64.7061 203.641C63.5746 202.275 62.5212 200.89 61.5458 199.486C60.6095 198.042 59.6926 196.559 58.7953 195.038L63.4771 191C64.1404 192.443 64.8817 193.828 65.701 195.155C66.5593 196.442 67.4372 197.71 68.3345 198.959C68.9197 198.179 69.4465 197.34 69.9146 196.442C70.3828 195.545 70.812 194.667 71.2021 193.809C70.1487 193.263 69.0758 192.755 67.9834 192.287C66.93 191.78 65.857 191.312 64.7646 190.883C65.2718 190.18 65.779 189.478 66.2862 188.776C66.8324 188.035 67.3591 187.332 67.8663 186.669C68.7637 187.332 69.5635 188.093 70.2658 188.951C70.9681 189.771 71.6313 190.629 72.2556 191.526C72.6457 190.434 72.9969 189.322 73.309 188.191C73.6601 187.059 73.9332 185.928 74.1283 184.796H65.9936C65.1353 185.967 64.1209 187.274 62.9504 188.717C61.7799 190.122 60.5314 191.429 59.2049 192.638C57.9174 193.848 56.5909 194.765 55.2253 195.389C55.0693 195.428 54.9132 195.487 54.7572 195.565C54.6401 195.604 54.5036 195.623 54.3475 195.623C53.9964 195.623 53.8208 195.428 53.8208 195.038C53.8208 194.96 53.9378 194.745 54.1719 194.394C54.445 194.004 54.7572 193.555 55.1083 193.048C55.4594 192.541 55.7911 192.073 56.1032 191.644C56.4153 191.214 56.6104 190.922 56.6884 190.766C58.171 188.308 59.439 185.772 60.4924 183.158C61.5849 180.505 62.5212 177.813 63.3015 175.081L70.0317 177.656C69.3294 179.1 68.5686 180.563 67.7493 182.046H82.0874C81.4242 185.869 80.1952 189.634 78.4005 193.341C76.6058 197.008 74.3819 200.266 71.7289 203.114C73.2505 205.143 74.9866 206.977 76.9374 208.615C78.9272 210.254 80.995 211.697 83.1409 212.946C83.453 212.283 83.8821 211.697 84.4284 211.19C85.0136 210.683 85.6964 210.429 86.4767 210.429C87.413 210.429 88.1933 210.722 88.8176 211.307C89.4418 211.892 89.754 212.673 89.754 213.648Z" fill="#A32C2D"/>
<path d="M257.18 232.024C257.324 232.024 257.492 232.031 257.688 232.044C257.883 232.057 258.039 232.076 258.156 232.102L257.941 234.834C257.85 234.807 257.714 234.788 257.531 234.775C257.363 234.749 257.213 234.736 257.083 234.736C256.706 234.736 256.341 234.788 255.99 234.892C255.639 234.983 255.321 235.133 255.034 235.341C254.761 235.548 254.541 235.828 254.371 236.18C254.215 236.518 254.137 236.94 254.137 237.448V242.871H251.23V232.219H253.435L253.864 234.014H254.001C254.209 233.65 254.469 233.319 254.781 233.019C255.093 232.72 255.451 232.48 255.854 232.298C256.27 232.115 256.712 232.024 257.18 232.024Z" fill="#A32C2D"/>
<path d="M244.095 232.024C245.084 232.024 245.929 232.213 246.631 232.59C247.346 232.968 247.899 233.514 248.29 234.229C248.68 234.944 248.875 235.822 248.875 236.862V238.267H242.008C242.034 239.086 242.274 239.73 242.73 240.198C243.198 240.666 243.842 240.9 244.661 240.9C245.35 240.9 245.974 240.835 246.534 240.705C247.093 240.562 247.671 240.347 248.27 240.062V242.305C247.749 242.565 247.197 242.754 246.612 242.871C246.039 243 245.344 243.066 244.525 243.066C243.458 243.066 242.515 242.871 241.696 242.481C240.877 242.078 240.233 241.473 239.765 240.666C239.297 239.86 239.062 238.845 239.062 237.623C239.062 236.375 239.27 235.341 239.687 234.521C240.116 233.689 240.707 233.065 241.462 232.649C242.216 232.232 243.094 232.024 244.095 232.024ZM244.115 234.092C243.555 234.092 243.087 234.275 242.71 234.638C242.346 235.002 242.131 235.568 242.067 236.336H246.144C246.144 235.906 246.066 235.523 245.91 235.185C245.766 234.846 245.545 234.58 245.246 234.385C244.947 234.19 244.57 234.092 244.115 234.092Z" fill="#A32C2D"/>
<path d="M235.734 240.745C236.059 240.745 236.371 240.712 236.67 240.647C236.969 240.582 237.269 240.504 237.567 240.413V242.579C237.255 242.708 236.865 242.818 236.397 242.91C235.942 243.014 235.441 243.066 234.895 243.066C234.258 243.066 233.685 242.962 233.178 242.754C232.684 242.545 232.287 242.188 231.988 241.681C231.702 241.16 231.559 240.445 231.559 239.535V234.405H230.174V233.176L231.773 232.2L232.612 229.957H234.466V232.22H237.45V234.405H234.466V239.535C234.466 239.938 234.583 240.243 234.817 240.452C235.051 240.647 235.357 240.745 235.734 240.745Z" fill="#A32C2D"/>
<path d="M224.473 232.024C225.618 232.024 226.535 232.337 227.224 232.961C227.913 233.572 228.258 234.56 228.258 235.926V242.871H225.351V236.648C225.351 235.88 225.214 235.309 224.941 234.931C224.668 234.541 224.233 234.346 223.634 234.346C222.751 234.346 222.146 234.651 221.82 235.263C221.495 235.861 221.332 236.726 221.332 237.857V242.871H218.426V232.219H220.65L221.04 233.585H221.196C221.43 233.221 221.717 232.929 222.054 232.707C222.393 232.473 222.77 232.304 223.186 232.2C223.602 232.083 224.031 232.024 224.473 232.024Z" fill="#A32C2D"/>
<path d="M215.379 232.22V242.871H213.155L212.765 241.505H212.609C212.388 241.869 212.101 242.169 211.75 242.403C211.413 242.624 211.035 242.786 210.619 242.89C210.203 243.007 209.774 243.066 209.331 243.066C208.577 243.066 207.914 242.929 207.342 242.656C206.77 242.383 206.327 241.961 206.015 241.388C205.703 240.816 205.547 240.074 205.547 239.164V232.22H208.454V238.443C208.454 239.197 208.59 239.769 208.863 240.159C209.136 240.55 209.572 240.745 210.17 240.745C210.769 240.745 211.23 240.608 211.555 240.335C211.894 240.062 212.128 239.665 212.258 239.145C212.401 238.625 212.472 237.987 212.472 237.233V232.22H215.379Z" fill="#A32C2D"/>
<path d="M202.335 242.871H199.389V236.863H193.869V242.871H190.923V228.942H193.869V234.405H199.389V228.942H202.335V242.871Z" fill="#A32C2D"/>
<path d="M181.65 240.745C181.975 240.745 182.287 240.712 182.586 240.647C182.885 240.582 183.185 240.504 183.483 240.413V242.579C183.171 242.708 182.781 242.818 182.313 242.91C181.858 243.014 181.357 243.066 180.811 243.066C180.174 243.066 179.601 242.962 179.094 242.754C178.6 242.545 178.204 242.188 177.904 241.681C177.618 241.16 177.475 240.445 177.475 239.535V234.405H176.09V233.176L177.689 232.2L178.528 229.957H180.382V232.22H183.366V234.405H180.382V239.535C180.382 239.938 180.499 240.243 180.733 240.452C180.967 240.647 181.273 240.745 181.65 240.745Z" fill="#A32C2D"/>
<path d="M170.027 232.024C171.016 232.024 171.861 232.213 172.563 232.59C173.279 232.968 173.831 233.514 174.221 234.229C174.611 234.944 174.807 235.822 174.807 236.862V238.267H167.94C167.966 239.086 168.207 239.73 168.662 240.198C169.13 240.666 169.774 240.9 170.593 240.9C171.282 240.9 171.907 240.835 172.466 240.705C173.025 240.562 173.604 240.347 174.202 240.062V242.305C173.682 242.565 173.129 242.754 172.544 242.871C171.972 243 171.276 243.066 170.456 243.066C169.39 243.066 168.447 242.871 167.628 242.481C166.808 242.078 166.165 241.473 165.696 240.666C165.228 239.86 164.994 238.845 164.994 237.623C164.994 236.375 165.203 235.341 165.618 234.521C166.048 233.689 166.64 233.065 167.394 232.649C168.149 232.232 169.026 232.024 170.027 232.024ZM170.047 234.092C169.488 234.092 169.02 234.275 168.642 234.638C168.278 235.002 168.064 235.568 167.998 236.336H172.075C172.075 235.906 171.997 235.523 171.841 235.185C171.699 234.846 171.478 234.58 171.178 234.385C170.88 234.19 170.502 234.092 170.047 234.092Z" fill="#A32C2D"/>
<path d="M156.447 234.678C156.447 235.08 156.427 235.483 156.388 235.887C156.362 236.277 156.33 236.673 156.291 237.077H156.33C156.459 236.895 156.59 236.712 156.72 236.531C156.863 236.348 157.006 236.166 157.149 235.985C157.292 235.802 157.442 235.627 157.598 235.458L160.582 232.22H163.86L159.626 236.843L164.113 242.871H160.758L157.695 238.56L156.447 239.554V242.871H153.54V228.045H156.447V234.678Z" fill="#A32C2D"/>
<path d="M150.631 232.024C150.775 232.024 150.944 232.031 151.139 232.044C151.334 232.057 151.49 232.076 151.607 232.102L151.392 234.834C151.302 234.807 151.165 234.788 150.983 234.775C150.814 234.749 150.664 234.736 150.534 234.736C150.156 234.736 149.793 234.788 149.442 234.892C149.09 234.983 148.771 235.133 148.486 235.341C148.213 235.548 147.991 235.828 147.822 236.18C147.666 236.518 147.588 236.94 147.588 237.448V242.871H144.682V232.219H146.886L147.315 234.014H147.452C147.66 233.65 147.92 233.319 148.232 233.019C148.544 232.72 148.902 232.48 149.305 232.298C149.721 232.115 150.163 232.024 150.631 232.024Z" fill="#A32C2D"/>
<path d="M137.279 232.005C138.71 232.005 139.802 232.317 140.556 232.941C141.324 233.553 141.707 234.496 141.707 235.77V242.871H139.678L139.113 241.427H139.035C138.735 241.805 138.423 242.117 138.098 242.363C137.786 242.611 137.422 242.787 137.006 242.89C136.603 243.007 136.102 243.066 135.504 243.066C134.88 243.066 134.314 242.949 133.807 242.715C133.312 242.468 132.922 242.097 132.636 241.603C132.35 241.095 132.207 240.459 132.207 239.691C132.207 238.559 132.604 237.727 133.397 237.194C134.19 236.648 135.38 236.349 136.967 236.297L138.82 236.238V235.77C138.82 235.211 138.671 234.801 138.371 234.541C138.086 234.281 137.682 234.151 137.162 234.151C136.642 234.151 136.135 234.229 135.64 234.385C135.146 234.528 134.652 234.711 134.158 234.931L133.202 232.961C133.774 232.662 134.405 232.428 135.094 232.258C135.796 232.09 136.525 232.005 137.279 232.005ZM137.689 237.974C136.752 238.001 136.102 238.169 135.738 238.481C135.374 238.794 135.192 239.203 135.192 239.71C135.192 240.153 135.321 240.471 135.582 240.666C135.842 240.849 136.18 240.939 136.596 240.939C137.221 240.939 137.747 240.758 138.176 240.393C138.606 240.017 138.82 239.49 138.82 238.813V237.935L137.689 237.974Z" fill="#A32C2D"/>
<path d="M120.632 242.871L117.276 231.947H117.198C117.211 232.206 117.23 232.596 117.257 233.117C117.282 233.637 117.308 234.196 117.335 234.795C117.36 235.38 117.374 235.912 117.374 236.394V242.871H114.74V228.942H118.759L122.056 239.594H122.114L125.606 228.942H129.625V242.871H126.874V236.277C126.874 235.834 126.88 235.327 126.894 234.756C126.919 234.183 126.938 233.644 126.952 233.137C126.977 232.616 126.997 232.226 127.011 231.966H126.933L123.343 242.871H120.632Z" fill="#A32C2D"/>
<path d="M110.534 240.745C110.859 240.745 111.171 240.712 111.471 240.647C111.77 240.582 112.069 240.504 112.368 240.413V242.579C112.056 242.708 111.666 242.818 111.198 242.91C110.742 243.014 110.242 243.066 109.695 243.066C109.059 243.066 108.486 242.962 107.979 242.754C107.484 242.545 107.088 242.188 106.789 241.681C106.503 241.16 106.36 240.445 106.36 239.535V234.405H104.975V233.176L106.574 232.2L107.413 229.957H109.266V232.22H112.251V234.405H109.266V239.535C109.266 239.938 109.383 240.243 109.617 240.452C109.852 240.647 110.157 240.745 110.534 240.745Z" fill="#A32C2D"/>
<path d="M96.1332 231.069C96.1332 231.588 96.1137 232.089 96.0747 232.571C96.0486 233.052 96.0227 233.39 95.9967 233.585H96.1527C96.3868 233.22 96.6599 232.928 96.972 232.707C97.2842 232.473 97.6284 232.303 98.0058 232.2C98.396 232.083 98.8057 232.024 99.2348 232.024C100.002 232.024 100.672 232.161 101.244 232.434C101.817 232.707 102.259 233.13 102.571 233.702C102.895 234.274 103.058 235.015 103.058 235.926V242.871H100.152V236.648C100.152 235.88 100.008 235.308 99.7225 234.931C99.4494 234.541 99.0202 234.346 98.435 234.346C97.8498 234.346 97.3882 234.482 97.0501 234.756C96.725 235.029 96.4909 235.425 96.3478 235.946C96.2047 236.465 96.1332 237.102 96.1332 237.857V242.871H93.2266V228.045H96.1332V231.069Z" fill="#A32C2D"/>
<path d="M84.3349 232.024C84.9851 232.024 85.5703 232.154 86.0906 232.415C86.6108 232.675 87.0529 233.065 87.4171 233.585H87.4951L87.7292 232.219H90.1872V242.89C90.1872 243.905 89.9856 244.756 89.5825 245.446C89.1923 246.135 88.6005 246.655 87.8073 247.006C87.0139 247.37 86.0321 247.553 84.8616 247.553C84.1072 247.553 83.405 247.507 82.7548 247.416C82.1175 247.325 81.4932 247.162 80.882 246.928V244.607C81.3242 244.789 81.7663 244.939 82.2086 245.056C82.6637 245.185 83.1254 245.277 83.5936 245.329C84.0748 245.394 84.5559 245.426 85.0372 245.426C85.7914 245.426 86.3506 245.224 86.7148 244.821C87.0919 244.419 87.2806 243.814 87.2806 243.007V242.793C87.2806 242.571 87.287 242.344 87.3001 242.11C87.326 241.876 87.3455 241.668 87.3586 241.486H87.2806C86.9164 242.045 86.4807 242.448 85.9735 242.695C85.4663 242.942 84.8941 243.066 84.2569 243.066C82.9953 243.066 82.0069 242.585 81.2917 241.622C80.5894 240.647 80.2383 239.294 80.2383 237.565C80.2383 236.394 80.4008 235.399 80.726 234.58C81.0511 233.748 81.5192 233.117 82.1305 232.688C82.7548 232.246 83.4895 232.024 84.3349 232.024ZM85.2518 234.385C84.7965 234.385 84.4129 234.509 84.1008 234.755C83.8017 234.99 83.5741 235.348 83.418 235.828C83.2749 236.297 83.2035 236.889 83.2035 237.604C83.2035 238.67 83.3725 239.47 83.7106 240.003C84.0487 240.523 84.5754 240.783 85.2908 240.783C85.6679 240.783 85.9931 240.738 86.2662 240.647C86.5393 240.542 86.7603 240.381 86.9294 240.159C87.1114 239.925 87.248 239.626 87.3391 239.262C87.4301 238.898 87.4756 238.455 87.4756 237.935V237.584C87.4756 236.816 87.3976 236.199 87.2415 235.731C87.0855 235.263 86.8448 234.924 86.5198 234.716C86.1946 234.495 85.7719 234.385 85.2518 234.385Z" fill="#A32C2D"/>
<path d="M77.845 232.22V242.871H74.9383V232.22H77.845ZM76.4014 228.045C76.8306 228.045 77.2012 228.148 77.5134 228.357C77.8255 228.552 77.9815 228.923 77.9815 229.469C77.9815 230.002 77.8255 230.372 77.5134 230.581C77.2012 230.789 76.8306 230.893 76.4014 230.893C75.9592 230.893 75.5821 230.789 75.27 230.581C74.9708 230.372 74.8213 230.002 74.8213 229.469C74.8213 228.923 74.9708 228.552 75.27 228.357C75.5821 228.148 75.9592 228.045 76.4014 228.045Z" fill="#A32C2D"/>
<path d="M71.6511 242.871H67.9056L61.8387 232.337H61.7607C61.7737 232.662 61.7867 232.993 61.7997 233.332C61.8127 233.656 61.8258 233.988 61.8387 234.327C61.8648 234.651 61.8843 234.983 61.8973 235.321C61.9102 235.646 61.9233 235.978 61.9363 236.316V242.871H59.3027V228.942H63.0287L69.0761 239.379H69.1346C69.1216 239.053 69.1086 238.735 69.0956 238.423C69.0826 238.097 69.0695 237.779 69.0566 237.467C69.0566 237.141 69.05 236.823 69.0371 236.511C69.0241 236.186 69.011 235.861 68.9981 235.536V228.942H71.6511V242.871Z" fill="#A32C2D"/>
</g>
<defs>
<clipPath id="clip0_2221_52646">
<rect width="317" height="317" fill="white"/>
</clipPath>
</defs>
</svg>
